<svg width="1512" height="857" viewBox="0 0 1512 857" fill="none" xmlns="http://www.w3.org/2000/svg">
<path d="M0 0H1512V857H0V0Z" fill="url(#paint0_linear_120_1596)"/>
<mask id="mask0_120_1596" style="mask-type:alpha" maskUnits="userSpaceOnUse" x="0" y="0" width="1512" height="857">
<path d="M0 0H1512V857H0V0Z" fill="#E85077"/>
</mask>
<g mask="url(#mask0_120_1596)">
<path opacity="0.45" d="M1820.59 839.004C1820.64 842.331 1820.67 845.661 1820.69 848.996L1820.19 848.998C1820.2 850.664 1820.2 852.332 1820.2 854C1820.2 855.669 1820.2 857.336 1820.19 859.003L1820.69 859.005C1820.67 862.34 1820.64 865.671 1820.59 868.997L1820.09 868.99C1820.04 872.315 1819.97 875.636 1819.88 878.953L1820.38 878.966C1820.3 882.285 1820.2 885.599 1820.08 888.91L1819.58 888.893C1819.46 892.202 1819.33 895.507 1819.18 898.808L1819.68 898.831C1819.53 902.143 1819.36 905.45 1819.17 908.754L1818.67 908.726C1818.49 912.053 1818.29 915.376 1818.07 918.694L1818.57 918.727C1818.35 922.048 1818.11 925.364 1817.86 928.675L1817.36 928.637C1817.11 931.947 1816.84 935.252 1816.55 938.553L1817.05 938.597C1816.76 941.899 1816.46 945.197 1816.14 948.491L1815.64 948.443C1815.32 951.737 1814.98 955.026 1814.63 958.311L1815.13 958.364C1814.77 961.678 1814.4 964.988 1814.01 968.292L1813.52 968.234C1813.29 970.129 1813.06 972.023 1812.83 973.915C1812.65 975.32 1812.48 976.724 1812.3 978.128L1812.79 978.191C1812.37 981.486 1811.93 984.776 1811.48 988.061L1810.98 987.992C1810.53 991.276 1810.05 994.554 1809.57 997.828L1810.06 997.901C1809.57 1001.18 1809.07 1004.45 1808.55 1007.71L1808.05 1007.63C1807.53 1010.92 1806.99 1014.2 1806.43 1017.48L1806.92 1017.56C1806.36 1020.84 1805.79 1024.11 1805.2 1027.38L1804.7 1027.29C1804.11 1030.56 1803.51 1033.82 1802.88 1037.08L1803.37 1037.17C1802.75 1040.43 1802.11 1043.68 1801.45 1046.93L1800.96 1046.83C1800.31 1050.08 1799.63 1053.32 1798.94 1056.55L1799.43 1056.66C1798.74 1059.91 1798.03 1063.16 1797.3 1066.4L1796.82 1066.29C1796.09 1069.53 1795.35 1072.77 1794.59 1076.01L1795.08 1076.12C1794.32 1079.35 1793.54 1082.58 1792.75 1085.8L1792.27 1085.68C1791.48 1088.91 1790.67 1092.12 1789.85 1095.33L1790.33 1095.45C1789.51 1098.66 1788.67 1101.87 1787.81 1105.07L1787.33 1104.94C1786.47 1108.15 1785.6 1111.35 1784.71 1114.55L1785.19 1114.68C1784.29 1117.88 1783.39 1121.08 1782.46 1124.27L1781.98 1124.13C1781.06 1127.32 1780.12 1130.5 1779.16 1133.68L1779.64 1133.82C1778.69 1137 1777.71 1140.17 1776.73 1143.34L1776.25 1143.19C1775.26 1146.35 1774.26 1149.51 1773.24 1152.66L1773.72 1152.81C1772.69 1155.97 1771.66 1159.13 1770.6 1162.28L1770.13 1162.12C1769.07 1165.27 1768 1168.41 1766.92 1171.55L1767.39 1171.71C1766.3 1174.85 1765.2 1177.98 1764.09 1181.11L1763.61 1180.94C1762.5 1184.06 1761.36 1187.18 1760.22 1190.29L1760.69 1190.46C1759.54 1193.57 1758.37 1196.68 1757.19 1199.77L1756.73 1199.6C1755.54 1202.7 1754.35 1205.79 1753.14 1208.88L1753.6 1209.07C1752.39 1212.16 1751.16 1215.24 1749.91 1218.32L1749.45 1218.13C1748.2 1221.21 1746.94 1224.28 1745.67 1227.34L1746.13 1227.54C1744.86 1230.6 1743.57 1233.66 1742.26 1236.71L1741.8 1236.51C1740.49 1239.56 1739.17 1242.6 1737.84 1245.63L1738.3 1245.83C1736.96 1248.87 1735.61 1251.9 1734.24 1254.93L1733.78 1254.72C1732.41 1257.74 1731.03 1260.76 1729.63 1263.77L1730.08 1263.98C1728.68 1266.99 1727.27 1270 1725.84 1272.99L1725.39 1272.78C1723.96 1275.77 1722.52 1278.76 1721.06 1281.74L1721.51 1281.96C1720.05 1284.93 1718.58 1287.91 1717.09 1290.87L1716.64 1290.65C1715.15 1293.61 1713.65 1296.57 1712.13 1299.52L1712.58 1299.75C1711.06 1302.7 1709.52 1305.65 1707.97 1308.58L1707.53 1308.35C1705.98 1311.28 1704.42 1314.21 1702.84 1317.13L1703.28 1317.37C1701.71 1320.29 1700.11 1323.2 1698.51 1326.1L1698.07 1325.86C1697.44 1326.99 1696.81 1328.12 1696.18 1329.26C1695.2 1331.02 1694.2 1332.78 1693.21 1334.54L1693.64 1334.79C1692.01 1337.67 1690.36 1340.55 1688.69 1343.43L1688.26 1343.18C1686.6 1346.05 1684.92 1348.91 1683.22 1351.76L1683.65 1352.02C1681.96 1354.87 1680.25 1357.72 1678.53 1360.56L1678.1 1360.3C1676.38 1363.13 1674.65 1365.96 1672.9 1368.78L1673.32 1369.04C1671.58 1371.86 1669.81 1374.67 1668.03 1377.48L1667.61 1377.21C1665.84 1380.01 1664.04 1382.8 1662.24 1385.59L1662.66 1385.86C1660.86 1388.65 1659.04 1391.42 1657.2 1394.19L1656.79 1393.91C1654.95 1396.68 1653.11 1399.44 1651.25 1402.18L1651.66 1402.46C1649.8 1405.21 1647.93 1407.95 1646.04 1410.68L1645.63 1410.4C1643.75 1413.13 1641.85 1415.85 1639.93 1418.56L1640.34 1418.85C1638.43 1421.56 1636.5 1424.26 1634.56 1426.96L1634.16 1426.66C1632.22 1429.35 1630.27 1432.04 1628.3 1434.71L1628.7 1435.01C1626.74 1437.68 1624.76 1440.34 1622.77 1443L1622.37 1442.7C1620.38 1445.35 1618.37 1447.99 1616.35 1450.63L1616.75 1450.93C1614.73 1453.57 1612.7 1456.19 1610.66 1458.81L1610.26 1458.5C1608.22 1461.12 1606.16 1463.72 1604.1 1466.31L1604.49 1466.63C1602.42 1469.22 1600.34 1471.8 1598.24 1474.38L1597.86 1474.06C1595.76 1476.64 1593.66 1479.2 1591.54 1481.75L1591.92 1482.07C1589.81 1484.63 1587.67 1487.17 1585.53 1489.71L1585.15 1489.38C1583 1491.92 1580.85 1494.44 1578.68 1496.96L1579.06 1497.28C1576.89 1499.79 1574.71 1502.3 1572.52 1504.79L1572.14 1504.46C1569.95 1506.95 1567.75 1509.43 1565.54 1511.9L1565.91 1512.23C1563.69 1514.7 1561.47 1517.16 1559.23 1519.61L1558.86 1519.27C1556.62 1521.72 1554.37 1524.16 1552.1 1526.59L1552.47 1526.93C1550.21 1529.36 1547.93 1531.78 1545.64 1534.18L1545.28 1533.84C1542.99 1536.24 1540.7 1538.63 1538.39 1541.02L1538.75 1541.37C1536.44 1543.75 1534.12 1546.12 1531.79 1548.48L1531.44 1548.13C1529.11 1550.49 1526.76 1552.84 1524.41 1555.18L1524.76 1555.53C1522.41 1557.87 1520.04 1560.2 1517.66 1562.52L1517.31 1562.16C1514.94 1564.48 1512.55 1566.79 1510.15 1569.08L1510.5 1569.44C1508.1 1571.73 1505.69 1574.02 1503.27 1576.29L1502.93 1575.92C1500.51 1578.19 1498.08 1580.45 1495.64 1582.69L1495.98 1583.06C1493.54 1585.31 1491.09 1587.55 1488.63 1589.77L1488.29 1589.4C1485.83 1591.62 1483.36 1593.84 1480.87 1596.04L1481.2 1596.41C1478.72 1598.62 1476.22 1600.81 1473.71 1602.99L1473.39 1602.61C1470.88 1604.79 1468.37 1606.95 1465.85 1609.1L1466.17 1609.48C1463.65 1611.64 1461.12 1613.78 1458.57 1615.91L1458.25 1615.52C1455.71 1617.65 1453.16 1619.77 1450.59 1621.88L1450.91 1622.26C1448.34 1624.37 1445.77 1626.46 1443.18 1628.55L1442.87 1628.16C1440.28 1630.24 1437.69 1632.31 1435.08 1634.37L1435.39 1634.76C1432.79 1636.82 1430.17 1638.86 1427.55 1640.9L1427.25 1640.5C1424.63 1642.53 1422 1644.55 1419.36 1646.56L1419.66 1646.95C1417.02 1648.96 1414.37 1650.96 1411.71 1652.94L1411.41 1652.54C1408.75 1654.52 1406.08 1656.5 1403.4 1658.46L1403.69 1658.86C1401.01 1660.82 1398.32 1662.77 1395.62 1664.7L1395.32 1664.3C1392.63 1666.23 1389.93 1668.15 1387.21 1670.06L1387.5 1670.46C1384.79 1672.37 1382.07 1674.26 1379.33 1676.15L1379.05 1675.73C1376.32 1677.61 1373.58 1679.48 1370.83 1681.34L1371.11 1681.76C1368.36 1683.61 1365.6 1685.46 1362.83 1687.29L1362.55 1686.87C1359.78 1688.71 1357 1690.53 1354.22 1692.34L1354.49 1692.75C1351.71 1694.56 1348.91 1696.35 1346.11 1698.13L1345.84 1697.71C1343.05 1699.49 1340.24 1701.25 1337.43 1703L1337.69 1703.43C1334.88 1705.18 1332.05 1706.92 1329.22 1708.65L1328.96 1708.22C1326.12 1709.95 1323.28 1711.66 1320.43 1713.36L1320.69 1713.79C1317.83 1715.5 1314.97 1717.19 1312.1 1718.86L1311.85 1718.43C1308.99 1720.11 1306.12 1721.77 1303.24 1723.41L1303.48 1723.85C1300.61 1725.49 1297.72 1727.13 1294.83 1728.75L1294.59 1728.31C1291.69 1729.93 1288.79 1731.54 1285.88 1733.13L1286.12 1733.57C1283.21 1735.16 1280.29 1736.74 1277.36 1738.31L1277.13 1737.87C1274.2 1739.44 1271.27 1741 1268.32 1742.54L1268.55 1742.98C1265.62 1744.52 1262.67 1746.05 1259.71 1747.57L1259.48 1747.12C1256.54 1748.63 1253.58 1750.13 1250.62 1751.61L1250.84 1752.06C1247.88 1753.54 1244.91 1755.01 1241.92 1756.47L1241.71 1756.02C1238.73 1757.48 1235.74 1758.93 1232.74 1760.36L1232.96 1760.81C1229.96 1762.24 1226.96 1763.66 1223.94 1765.07L1223.73 1764.62C1220.72 1766.02 1217.71 1767.41 1214.68 1768.79L1214.89 1769.24C1211.88 1770.62 1208.86 1771.98 1205.83 1773.32L1205.63 1772.86C1202.6 1774.21 1199.56 1775.54 1196.52 1776.86L1196.72 1777.32C1193.68 1778.64 1190.62 1779.95 1187.56 1781.24L1187.37 1780.78C1184.31 1782.07 1181.25 1783.35 1178.17 1784.62L1178.36 1785.08C1175.29 1786.35 1172.21 1787.6 1169.12 1788.84L1168.94 1788.38C1165.87 1789.61 1162.79 1790.83 1159.7 1792.03L1159.89 1792.5C1156.8 1793.7 1153.71 1794.9 1150.61 1796.08L1150.43 1795.61C1147.33 1796.79 1144.22 1797.95 1141.11 1799.1L1141.28 1799.57C1138.17 1800.72 1135.04 1801.86 1131.92 1802.99L1131.75 1802.52C1128.62 1803.64 1125.48 1804.75 1122.34 1805.85L1122.51 1806.32C1119.38 1807.41 1116.25 1808.49 1113.11 1809.55L1112.95 1809.08C1109.82 1810.14 1106.68 1811.19 1103.53 1812.23L1103.68 1812.7C1100.53 1813.74 1097.38 1814.76 1094.21 1815.77L1094.06 1815.29C1090.9 1816.3 1087.73 1817.3 1084.55 1818.28L1084.7 1818.75C1081.52 1819.74 1078.34 1820.7 1075.15 1821.66L1075.01 1821.18C1071.84 1822.13 1068.66 1823.06 1065.47 1823.98L1065.61 1824.46C1062.43 1825.38 1059.24 1826.28 1056.05 1827.18L1055.92 1826.69C1052.72 1827.59 1049.53 1828.46 1046.32 1829.33L1046.45 1829.81C1043.25 1830.67 1040.04 1831.52 1036.82 1832.36L1036.69 1831.87C1033.48 1832.71 1030.25 1833.53 1027.03 1834.34L1027.15 1834.82C1023.93 1835.63 1020.71 1836.42 1017.48 1837.2L1017.36 1836.71C1014.14 1837.48 1010.92 1838.24 1007.7 1838.99L1007.81 1839.47C1004.58 1840.22 1001.35 1840.95 998.107 1841.67L997.999 1841.18C994.76 1841.9 991.516 1842.6 988.267 1843.29L988.37 1843.78C985.119 1844.47 981.863 1845.14 978.6 1845.8L978.501 1845.31C975.245 1845.97 971.984 1846.62 968.717 1847.25L968.812 1847.74C965.566 1848.37 962.315 1848.98 959.058 1849.58L958.968 1849.09C957.216 1849.41 955.462 1849.73 953.707 1850.04C952.201 1850.31 950.695 1850.58 949.187 1850.84L949.273 1851.33C946.006 1851.9 942.734 1852.46 939.456 1853L939.375 1852.51C936.099 1853.05 932.818 1853.58 929.532 1854.09L929.609 1854.59C926.321 1855.1 923.029 1855.6 919.731 1856.08L919.658 1855.59C916.387 1856.07 913.111 1856.54 909.831 1856.99L909.899 1857.48C906.622 1857.94 903.339 1858.37 900.052 1858.8L899.988 1858.3C898.326 1858.52 896.663 1858.73 894.999 1858.93C893.373 1859.14 891.746 1859.33 890.118 1859.53L890.177 1860.03C886.881 1860.42 883.58 1860.8 880.274 1861.17L880.219 1860.67C876.915 1861.04 873.606 1861.39 870.292 1861.72L870.343 1862.22C867.043 1862.56 863.738 1862.88 860.429 1863.18L860.383 1862.69C857.094 1862.99 853.8 1863.28 850.502 1863.56L850.544 1864.06C847.244 1864.33 843.94 1864.6 840.632 1864.84L840.595 1864.34C837.288 1864.59 833.977 1864.83 830.662 1865.04L830.695 1865.54C827.379 1865.76 824.058 1865.97 820.733 1866.16L820.705 1865.66C817.381 1865.85 814.054 1866.02 810.723 1866.18L810.747 1866.68C807.45 1866.84 804.149 1866.99 800.844 1867.12L800.825 1866.62C797.521 1866.75 794.214 1866.86 790.903 1866.97L790.918 1867.46C787.606 1867.57 784.29 1867.65 780.97 1867.73L780.959 1867.23C777.64 1867.3 774.318 1867.36 770.992 1867.4L770.998 1867.9C767.671 1867.95 764.34 1867.97 761.005 1867.99L761.003 1867.49C759.336 1867.5 757.668 1867.5 756 1867.5C754.331 1867.5 752.663 1867.5 750.996 1867.49L750.994 1867.99C747.659 1867.97 744.328 1867.95 741 1867.9L741.007 1867.4C737.681 1867.36 734.358 1867.3 731.04 1867.23L731.029 1867.73C727.709 1867.65 724.393 1867.57 721.08 1867.46L721.095 1866.97C717.784 1866.86 714.477 1866.75 711.174 1866.62L711.154 1867.12C707.849 1866.99 704.549 1866.84 701.252 1866.68L701.276 1866.18C697.944 1866.02 694.617 1865.85 691.294 1865.66L691.265 1866.16C687.941 1865.97 684.62 1865.76 681.303 1865.54L681.336 1865.04C678.021 1864.83 674.71 1864.59 671.404 1864.34L671.366 1864.84C668.058 1864.6 664.754 1864.33 661.455 1864.06L661.497 1863.56C658.198 1863.28 654.905 1862.99 651.615 1862.69L651.569 1863.18C648.26 1862.88 644.956 1862.56 641.655 1862.22L641.706 1861.72C638.393 1861.39 635.084 1861.03 631.779 1860.67L631.724 1861.17C628.419 1860.8 625.118 1860.42 621.821 1860.02L621.881 1859.53C618.586 1859.13 615.295 1858.72 612.01 1858.3L611.946 1858.8C608.659 1858.37 605.377 1857.94 602.1 1857.48L602.168 1856.99C598.887 1856.54 595.611 1856.07 592.34 1855.59L592.268 1856.08C588.97 1855.6 585.677 1855.1 582.39 1854.59L582.467 1854.09C579.181 1853.58 575.9 1853.05 572.624 1852.51L572.542 1853C569.265 1852.46 565.993 1851.9 562.726 1851.33L562.812 1850.84C559.546 1850.27 556.286 1849.69 553.031 1849.09L552.94 1849.58C549.684 1848.98 546.432 1848.37 543.187 1847.74L543.281 1847.25C540.015 1846.62 536.753 1845.97 533.498 1845.31L533.398 1845.8C530.136 1845.14 526.88 1844.47 523.628 1843.78L523.732 1843.29C520.482 1842.6 517.239 1841.9 514 1841.18L513.892 1841.67C510.652 1840.95 507.418 1840.22 504.19 1839.47L504.302 1838.99C501.076 1838.24 497.854 1837.48 494.639 1836.71L494.522 1837.2C491.292 1836.42 488.069 1835.63 484.851 1834.82L484.972 1834.34C481.744 1833.53 478.522 1832.71 475.306 1831.87L475.18 1832.36C471.963 1831.52 468.751 1830.67 465.546 1829.81L465.676 1829.33C462.472 1828.46 459.274 1827.59 456.083 1826.69L455.948 1827.18C452.755 1826.28 449.569 1825.38 446.388 1824.46L446.527 1823.98C443.342 1823.06 440.164 1822.13 436.992 1821.18L436.848 1821.66C433.658 1820.7 430.475 1819.74 427.298 1818.75L427.446 1818.28C424.27 1817.3 421.101 1816.3 417.939 1815.29L417.787 1815.77C414.624 1814.76 411.466 1813.74 408.316 1812.7L408.472 1812.23C405.323 1811.19 402.181 1810.14 399.046 1809.08L398.885 1809.55C395.747 1808.49 392.616 1807.41 389.492 1806.32L389.657 1805.85C386.515 1804.75 383.38 1803.64 380.253 1802.52L380.083 1802.99C376.954 1801.86 373.832 1800.72 370.717 1799.57L370.891 1799.1C367.777 1797.95 364.67 1796.79 361.571 1795.61L361.393 1796.08C358.292 1794.9 355.199 1793.7 352.113 1792.5L352.294 1792.03C349.21 1790.83 346.132 1789.61 343.062 1788.38L342.875 1788.84C339.788 1787.6 336.709 1786.35 333.637 1785.08L333.827 1784.62C330.754 1783.35 327.688 1782.07 324.63 1780.78L324.435 1781.24C321.376 1779.95 318.324 1778.64 315.28 1777.32L315.479 1776.86C312.436 1775.54 309.4 1774.21 306.373 1772.86L306.17 1773.32C303.141 1771.97 300.12 1770.62 297.107 1769.24L297.314 1768.79C294.291 1767.41 291.276 1766.02 288.269 1764.62L288.057 1765.07C285.044 1763.66 282.039 1762.24 279.042 1760.81L279.257 1760.36C276.261 1758.93 273.274 1757.48 270.294 1756.02L270.074 1756.47C267.093 1755.01 264.121 1753.54 261.156 1752.06L261.38 1751.61C258.417 1750.13 255.462 1748.63 252.515 1747.12L252.287 1747.57C249.331 1746.05 246.384 1744.52 243.444 1742.98L243.677 1742.54C240.733 1741 237.797 1739.44 234.871 1737.87L234.634 1738.31C231.706 1736.74 228.787 1735.16 225.876 1733.57L226.116 1733.13C223.206 1731.54 220.306 1729.93 217.413 1728.31L217.169 1728.75C214.276 1727.13 211.391 1725.49 208.515 1723.85L208.763 1723.41C205.883 1721.77 203.011 1720.1 200.149 1718.43L199.897 1718.86C197.026 1717.19 194.164 1715.5 191.312 1713.79L191.568 1713.36C188.717 1711.66 185.875 1709.95 183.042 1708.22L182.782 1708.65C179.948 1706.92 177.122 1705.18 174.307 1703.43L174.571 1703C171.756 1701.25 168.951 1699.49 166.155 1697.71L165.887 1698.13C163.085 1696.35 160.293 1694.56 157.511 1692.75L157.783 1692.33C154.995 1690.53 152.216 1688.71 149.447 1686.87L149.171 1687.29C146.401 1685.46 143.64 1683.61 140.889 1681.75L141.169 1681.34C138.419 1679.48 135.679 1677.61 132.948 1675.73L132.665 1676.15C129.933 1674.26 127.211 1672.37 124.499 1670.46L124.786 1670.05C122.073 1668.15 119.369 1666.23 116.675 1664.3L116.383 1664.7C113.681 1662.77 110.99 1660.82 108.308 1658.86L108.603 1658.45C105.923 1656.5 103.252 1654.52 100.592 1652.54L100.293 1652.94C97.6316 1650.96 94.9803 1648.96 92.3392 1646.95L92.6418 1646.56C90.002 1644.55 87.3724 1642.53 84.7532 1640.5L84.4469 1640.9C81.8242 1638.86 79.2118 1636.82 76.6099 1634.76L76.9199 1634.37C74.3133 1632.31 71.7172 1630.24 69.1317 1628.16L68.818 1628.55C66.2313 1626.46 63.6551 1624.37 61.0895 1622.26L61.4068 1621.88C58.8426 1619.77 56.2889 1617.65 53.746 1615.52L53.4251 1615.91C50.881 1613.78 48.3477 1611.64 45.8252 1609.48L46.1497 1609.1C43.6268 1606.95 41.1146 1604.79 38.6134 1602.61L38.2853 1602.99C35.7778 1600.81 33.2812 1598.62 30.7958 1596.41L31.1274 1596.04C28.6432 1593.84 26.1699 1591.62 23.7079 1589.4L23.3727 1589.77C20.9095 1587.55 18.4574 1585.31 16.0166 1583.06L16.3553 1582.69C13.9156 1580.45 11.4872 1578.19 9.07016 1575.92L8.72803 1576.29C6.30853 1574.02 3.90039 1571.73 1.50369 1569.44L1.8493 1569.08C-0.550537 1566.78 -2.93893 1564.48 -5.31573 1562.16L-5.66476 1562.52C-8.04269 1560.2 -10.4091 1557.87 -12.7638 1555.53L-12.4113 1555.18C-14.7649 1552.84 -17.1068 1550.49 -19.437 1548.13L-19.7928 1548.48C-22.1241 1546.12 -24.4437 1543.75 -26.7514 1541.36L-26.3922 1541.02C-28.6998 1538.63 -30.9955 1536.24 -33.2793 1533.84L-33.6418 1534.18C-35.9301 1531.77 -38.2064 1529.36 -40.4706 1526.93L-40.1049 1526.59C-42.368 1524.16 -44.6191 1521.72 -46.858 1519.27L-47.227 1519.61C-49.467 1517.16 -51.6949 1514.7 -53.9105 1512.23L-53.5383 1511.89C-55.7528 1509.43 -57.9552 1506.95 -60.1451 1504.46L-60.5205 1504.79C-62.7123 1502.3 -64.8918 1499.79 -67.0588 1497.28L-66.6802 1496.95C-68.8486 1494.44 -71.0045 1491.92 -73.1479 1489.38L-73.5296 1489.71C-75.674 1487.17 -77.8059 1484.63 -79.9252 1482.07L-79.5403 1481.75C-81.6585 1479.2 -83.7641 1476.64 -85.8569 1474.06L-86.2449 1474.38C-88.3387 1471.8 -90.4199 1469.22 -92.4882 1466.62L-92.0972 1466.31C-94.165 1463.72 -96.22 1461.12 -98.2621 1458.5L-98.6561 1458.81C-100.701 1456.19 -102.732 1453.57 -104.751 1450.93L-104.354 1450.63C-106.372 1447.99 -108.376 1445.35 -110.368 1442.7L-110.768 1443C-112.76 1440.34 -114.739 1437.68 -116.706 1435L-116.303 1434.71C-118.268 1432.04 -120.22 1429.35 -122.159 1426.66L-122.564 1426.95C-124.504 1424.26 -126.431 1421.56 -128.344 1418.85L-127.935 1418.56C-129.848 1415.85 -131.748 1413.13 -133.634 1410.4L-134.045 1410.68C-135.932 1407.95 -137.805 1405.21 -139.665 1402.46L-139.251 1402.18C-141.11 1399.43 -142.956 1396.68 -144.787 1393.91L-145.204 1394.19C-147.037 1391.42 -148.856 1388.64 -150.661 1385.86L-150.241 1385.59C-152.046 1382.8 -153.836 1380.01 -155.613 1377.21L-156.035 1377.48C-157.812 1374.67 -159.576 1371.86 -161.325 1369.04L-160.9 1368.78C-162.649 1365.96 -164.384 1363.13 -166.105 1360.3L-166.532 1360.56C-168.254 1357.72 -169.961 1354.87 -171.655 1352.02L-171.225 1351.76C-172.917 1348.91 -174.596 1346.05 -176.26 1343.17L-176.693 1343.43C-178.357 1340.55 -180.008 1337.67 -181.644 1334.79L-181.209 1334.54C-182.844 1331.65 -184.464 1328.76 -186.07 1325.86L-186.507 1326.1C-188.114 1323.2 -189.706 1320.29 -191.284 1317.37L-190.844 1317.13C-192.421 1314.21 -193.984 1311.28 -195.532 1308.35L-195.974 1308.58C-197.523 1305.64 -199.058 1302.7 -200.577 1299.75L-200.133 1299.52C-201.651 1296.57 -203.155 1293.61 -204.644 1290.65L-205.09 1290.87C-206.578 1287.91 -208.052 1284.93 -209.511 1281.95L-209.061 1281.73C-210.519 1278.76 -211.963 1275.77 -213.391 1272.78L-213.842 1272.99C-215.271 1270 -216.685 1266.99 -218.085 1263.98L-217.631 1263.77C-219.03 1260.76 -220.413 1257.74 -221.782 1254.72L-222.237 1254.93C-223.606 1251.9 -224.959 1248.87 -226.297 1245.83L-225.84 1245.63C-227.175 1242.6 -228.495 1239.56 -229.8 1236.51L-230.26 1236.71C-231.566 1233.66 -232.856 1230.6 -234.132 1227.54L-233.67 1227.34C-234.945 1224.28 -236.205 1221.21 -237.449 1218.13L-237.912 1218.32C-239.157 1215.24 -240.387 1212.16 -241.601 1209.06L-241.136 1208.88C-242.348 1205.79 -243.545 1202.7 -244.727 1199.6L-245.194 1199.77C-246.373 1196.68 -247.537 1193.57 -248.686 1190.46L-248.217 1190.29C-249.365 1187.18 -250.498 1184.06 -251.615 1180.94L-252.085 1181.11C-253.203 1177.98 -254.305 1174.85 -255.391 1171.71L-254.919 1171.55C-256.005 1168.41 -257.075 1165.27 -258.129 1162.12L-258.603 1162.28C-259.657 1159.13 -260.695 1155.97 -261.717 1152.81L-261.241 1152.66C-262.26 1149.51 -263.263 1146.35 -264.25 1143.19L-264.727 1143.34C-265.715 1140.17 -266.687 1137 -267.642 1133.82L-267.164 1133.68C-268.119 1130.5 -269.059 1127.32 -269.982 1124.13L-270.463 1124.27C-271.387 1121.08 -272.295 1117.88 -273.187 1114.68L-272.705 1114.55C-273.596 1111.35 -274.47 1108.15 -275.329 1104.94L-275.812 1105.07C-276.667 1101.87 -277.507 1098.66 -278.33 1095.45L-277.846 1095.33C-278.669 1092.12 -279.476 1088.91 -280.266 1085.68L-280.752 1085.8C-281.543 1082.58 -282.318 1079.35 -283.077 1076.12L-282.59 1076C-283.349 1072.77 -284.091 1069.53 -284.817 1066.29L-285.305 1066.4C-286.031 1063.16 -286.74 1059.91 -287.433 1056.66L-286.944 1056.55C-287.633 1053.32 -288.305 1050.08 -288.962 1046.83L-289.452 1046.93C-290.109 1043.68 -290.749 1040.43 -291.373 1037.17L-290.882 1037.08C-291.506 1033.82 -292.114 1030.56 -292.705 1027.29L-293.197 1027.38C-293.788 1024.11 -294.363 1020.84 -294.921 1017.56L-294.429 1017.48C-294.986 1014.2 -295.528 1010.92 -296.052 1007.63L-296.546 1007.71C-297.068 1004.45 -297.572 1001.18 -298.061 997.9L-297.566 997.827C-298.055 994.553 -298.527 991.275 -298.982 987.992L-299.477 988.06C-299.933 984.775 -300.372 981.485 -300.794 978.19L-300.298 978.127C-300.721 974.834 -301.126 971.536 -301.515 968.233L-302.012 968.291C-302.401 964.987 -302.774 961.677 -303.13 958.363L-302.632 958.31C-302.985 955.025 -303.321 951.736 -303.641 948.442L-304.138 948.49C-304.458 945.196 -304.761 941.898 -305.047 938.596L-304.549 938.552C-304.836 935.251 -305.105 931.946 -305.358 928.636L-305.857 928.674C-306.11 925.363 -306.346 922.047 -306.566 918.726L-306.067 918.693C-306.286 915.375 -306.489 912.052 -306.675 908.725L-307.174 908.753C-307.359 905.449 -307.527 902.142 -307.678 898.83L-307.179 898.807C-307.329 895.506 -307.464 892.201 -307.581 888.892L-308.081 888.909C-308.198 885.599 -308.299 882.283 -308.384 878.965L-307.884 878.952C-307.968 875.635 -308.035 872.314 -308.086 868.989L-308.586 868.996C-308.637 865.669 -308.67 862.339 -308.687 859.004L-308.187 859.002C-308.196 857.336 -308.2 855.668 -308.2 854C-308.2 852.331 -308.196 850.664 -308.187 848.997L-308.687 848.995C-308.67 845.66 -308.637 842.329 -308.586 839.003L-308.086 839.01C-308.035 835.685 -307.968 832.364 -307.884 829.047L-308.384 829.034C-308.299 825.715 -308.198 822.4 -308.081 819.09L-307.581 819.107C-307.464 815.798 -307.329 812.493 -307.179 809.192L-307.678 809.169C-307.527 805.857 -307.359 802.55 -307.174 799.246L-306.675 799.274C-306.489 795.947 -306.286 792.624 -306.067 789.306L-306.566 789.273C-306.346 785.952 -306.11 782.636 -305.857 779.325L-305.358 779.363C-305.105 776.053 -304.836 772.748 -304.549 769.447L-305.047 769.403C-304.761 766.101 -304.458 762.803 -304.138 759.509L-303.641 759.557C-303.321 756.263 -302.985 752.974 -302.632 749.689L-303.129 749.636C-302.774 746.322 -302.401 743.013 -302.012 739.708L-301.515 739.766C-301.126 736.464 -300.721 733.166 -300.298 729.872L-300.794 729.809C-300.372 726.514 -299.933 723.224 -299.477 719.939L-298.982 720.008C-298.527 716.724 -298.055 713.446 -297.566 710.172L-298.061 710.099C-297.572 706.824 -297.067 703.554 -296.546 700.289L-296.052 700.368C-295.528 697.081 -294.986 693.8 -294.428 690.524L-294.921 690.44C-294.363 687.16 -293.788 683.886 -293.197 680.617L-292.705 680.706C-292.113 677.439 -291.506 674.177 -290.882 670.92L-291.373 670.826C-290.749 667.568 -290.108 664.315 -289.452 661.068L-288.962 661.167C-288.305 657.922 -287.632 654.682 -286.944 651.447L-287.433 651.343C-286.74 648.09 -286.03 644.842 -285.305 641.6L-284.817 641.709C-284.091 638.465 -283.349 635.227 -282.59 631.995L-283.077 631.88C-282.318 628.646 -281.543 625.418 -280.752 622.196L-280.266 622.315C-279.475 619.094 -278.669 615.88 -277.846 612.671L-278.33 612.547C-277.506 609.336 -276.667 606.132 -275.812 602.933L-275.329 603.063C-274.47 599.853 -273.596 596.65 -272.705 593.453L-273.187 593.318C-272.295 590.115 -271.387 586.919 -270.462 583.728L-269.982 583.867C-269.059 580.679 -268.119 577.496 -267.164 574.32L-267.642 574.176C-266.686 570.998 -265.715 567.827 -264.727 564.662L-264.25 564.811C-263.263 561.648 -262.26 558.491 -261.241 555.34L-261.717 555.187C-260.695 552.025 -259.657 548.87 -258.603 545.722L-258.129 545.881C-257.075 542.731 -256.004 539.587 -254.919 536.45L-255.391 536.287C-254.305 533.148 -253.203 530.017 -252.085 526.892L-251.614 527.06C-250.497 523.937 -249.365 520.82 -248.217 517.711L-248.686 517.538C-247.537 514.427 -246.373 511.323 -245.194 508.226L-244.726 508.404C-243.545 505.301 -242.348 502.206 -241.135 499.118L-241.601 498.935C-240.387 495.842 -239.157 492.756 -237.912 489.678L-237.449 489.865C-236.204 486.788 -234.945 483.719 -233.67 480.656L-234.132 480.464C-232.856 477.4 -231.565 474.343 -230.26 471.294L-229.8 471.491C-228.495 468.443 -227.175 465.403 -225.839 462.37L-226.297 462.169C-224.959 459.13 -223.605 456.098 -222.237 453.074L-221.782 453.28C-220.413 450.255 -219.029 447.238 -217.631 444.229L-218.084 444.018C-216.685 441.007 -215.271 438.004 -213.842 435.008L-213.391 435.223C-211.962 432.229 -210.519 429.243 -209.061 426.265L-209.51 426.045C-208.052 423.065 -206.578 420.093 -205.09 417.129L-204.643 417.353C-203.154 414.388 -201.651 411.43 -200.132 408.48L-200.577 408.252C-199.057 405.299 -197.523 402.354 -195.974 399.418L-195.532 399.651C-193.984 396.716 -192.421 393.79 -190.844 390.871L-191.284 390.634C-189.706 387.714 -188.113 384.802 -186.507 381.898L-186.069 382.141C-184.463 379.239 -182.843 376.345 -181.209 373.46L-181.644 373.213C-180.007 370.325 -178.357 367.445 -176.692 364.574L-176.26 364.824C-174.595 361.954 -172.917 359.092 -171.224 356.238L-171.654 355.983C-169.961 353.128 -168.253 350.282 -166.532 347.444L-166.104 347.703C-164.383 344.867 -162.649 342.039 -160.9 339.22L-161.325 338.957C-159.575 336.137 -157.812 333.325 -156.034 330.522L-155.612 330.79C-153.836 327.989 -152.045 325.196 -150.241 322.412L-150.66 322.14C-148.855 319.355 -147.036 316.578 -145.204 313.811L-144.787 314.087C-142.955 311.321 -141.11 308.564 -139.251 305.817L-139.665 305.536C-137.805 302.787 -135.932 300.047 -134.045 297.316L-133.633 297.6C-131.747 294.871 -129.848 292.151 -127.935 289.44L-128.343 289.151C-126.43 286.44 -124.504 283.737 -122.564 281.045L-122.158 281.337C-120.219 278.646 -118.267 275.964 -116.302 273.291L-116.705 272.995C-114.739 270.321 -112.759 267.657 -110.767 265.002L-110.367 265.302C-108.376 262.649 -106.371 260.005 -104.353 257.371L-104.75 257.067C-102.732 254.431 -100.7 251.805 -98.6555 249.189L-98.2615 249.497C-96.2194 246.884 -94.1644 244.28 -92.0966 241.686L-92.4876 241.375C-90.4192 238.781 -88.3381 236.196 -86.2442 233.621L-85.8563 233.937C-83.7635 231.363 -81.6579 228.8 -79.5397 226.246L-79.9245 225.927C-77.8053 223.372 -75.6734 220.827 -73.529 218.292L-73.1473 218.615C-71.0039 216.082 -68.8479 213.558 -66.6796 211.045L-67.0582 210.718C-64.8911 208.206 -62.7117 205.704 -60.5199 203.213L-60.1445 203.543C-57.9545 201.053 -55.7522 198.574 -53.5377 196.105L-53.9099 195.771C-51.6942 193.301 -49.4663 190.84 -47.2263 188.391L-46.8573 188.728C-44.6184 186.279 -42.3673 183.841 -40.1042 181.413L-40.4699 181.072C-38.2057 178.643 -35.9294 176.225 -33.6411 173.817L-33.2787 174.161C-30.9949 171.758 -28.6992 169.365 -26.3916 166.983L-26.7507 166.635C-24.443 164.253 -22.1234 161.881 -19.7921 159.519L-19.4363 159.871C-17.1061 157.511 -14.7642 155.161 -12.4106 152.822L-12.7631 152.468C-10.4084 150.128 -8.04199 147.799 -5.66406 145.48L-5.31503 145.838C-2.93823 143.521 -0.549835 141.215 1.85001 138.919L1.50439 138.558C3.90109 136.266 6.30923 133.984 8.72873 131.713L9.07089 132.078C11.4879 129.809 13.9164 127.552 16.356 125.306L16.0173 124.938C18.4581 122.69 20.9102 120.454 23.3734 118.228L23.7086 118.599C26.1707 116.375 28.6439 114.162 31.1282 111.96L30.7965 111.585C33.282 109.382 35.7786 107.19 38.2861 105.01L38.6142 105.387C41.1154 103.212 43.6275 101.048 46.1505 98.8954L45.8259 98.515C48.3484 96.3628 50.8818 94.2218 53.4259 92.0923L53.7468 92.4757C56.2897 90.3472 58.8433 88.23 61.4076 86.1243L61.0903 85.7379C63.6558 83.6311 66.232 81.5359 68.8188 79.4522L69.1324 79.8415C71.718 77.7588 74.3141 75.6876 76.9207 73.628L76.6107 73.2357C79.2126 71.1798 81.825 69.1355 84.4477 67.1029L84.7539 67.4981C87.3732 65.4681 90.0028 63.4498 92.6426 61.4432L92.34 61.0451C94.9811 59.0375 97.6324 57.0417 100.294 55.0576L100.593 55.4585C103.253 53.4754 105.923 51.5041 108.604 49.5447L108.309 49.141C110.99 47.1806 113.682 45.2322 116.384 43.2956L116.675 43.702C119.369 41.7711 122.073 39.852 124.787 37.9449L124.5 37.5358C127.212 35.63 129.934 33.7361 132.666 31.8542L132.949 32.266C135.68 30.3851 138.42 28.5162 141.169 26.6594L140.89 26.245C143.641 24.3873 146.402 22.5418 149.172 20.7085L149.448 21.1255C152.217 19.293 154.995 17.4727 157.784 15.6647L157.512 15.2452C160.294 13.4408 163.086 11.6486 165.888 9.86865L166.156 10.2907C168.952 8.51428 171.757 6.75015 174.572 4.99838L174.307 4.57388C177.123 2.82129 179.948 1.08104 182.783 -0.646759L183.043 -0.219849C185.876 -1.94684 188.718 -3.66142 191.569 -5.36348L191.313 -5.7928C194.165 -7.49565 197.027 -9.18597 199.897 -10.8637L200.15 -10.432C203.012 -12.1051 205.884 -13.7656 208.764 -15.4136L208.516 -15.8475C211.392 -17.4929 214.277 -19.1257 217.17 -20.7458L217.414 -20.3095C220.306 -21.9289 223.207 -23.5357 226.117 -25.1297L225.877 -25.5682C228.788 -27.1629 231.707 -28.7449 234.635 -30.3141L234.871 -29.8734C237.798 -31.4419 240.734 -32.9976 243.677 -34.5404L243.445 -34.9833C246.385 -36.5236 249.332 -38.0511 252.288 -39.5657L252.516 -39.1207C255.463 -40.6305 258.418 -42.1274 261.381 -43.6114L261.157 -44.0584C264.121 -45.5431 267.094 -47.0149 270.075 -48.4736L270.295 -48.0245C273.274 -49.4826 276.262 -50.9277 279.258 -52.3597L279.042 -52.8108C282.04 -54.2435 285.045 -55.6631 288.058 -57.0695L288.27 -56.6164C291.277 -58.02 294.292 -59.4105 297.315 -60.7877L297.108 -61.2427C300.121 -62.6156 303.142 -63.9753 306.171 -65.3218L306.374 -64.8649C309.401 -66.2109 312.436 -67.5436 315.479 -68.8631L315.28 -69.3218C318.325 -70.6419 321.377 -71.9488 324.436 -73.2423L324.631 -72.7818C327.689 -74.0747 330.755 -75.3543 333.828 -76.6205L333.638 -77.0828C336.71 -78.3485 339.789 -79.6009 342.876 -80.8398L343.062 -80.3758C346.133 -81.608 349.211 -82.8268 352.295 -84.0323L352.113 -84.498C355.2 -85.704 358.293 -86.8966 361.394 -88.0757L361.572 -87.6084C364.671 -88.7869 367.778 -89.952 370.891 -91.1036L370.718 -91.5725C373.833 -92.7246 376.955 -93.8631 380.084 -94.988L380.254 -94.5175C383.381 -95.6418 386.516 -96.7526 389.658 -97.8496L389.493 -98.3217C392.617 -99.4126 395.748 -100.49 398.886 -101.554L399.047 -101.08C402.182 -102.143 405.324 -103.192 408.473 -104.228L408.317 -104.703C411.468 -105.739 414.625 -106.762 417.788 -107.77L417.94 -107.294C421.102 -108.302 424.271 -109.296 427.447 -110.277L427.299 -110.755C430.476 -111.736 433.66 -112.703 436.849 -113.656L436.993 -113.177C440.165 -114.125 443.343 -115.06 446.528 -115.98L446.389 -116.46C449.57 -117.38 452.757 -118.285 455.949 -119.176L456.084 -118.695C459.275 -119.586 462.473 -120.463 465.677 -121.326L465.547 -121.809C468.752 -122.673 471.964 -123.522 475.181 -124.358L475.307 -123.874C478.523 -124.71 481.745 -125.531 484.973 -126.338L484.852 -126.823C488.07 -127.628 491.294 -128.419 494.523 -129.195L494.64 -128.709C497.855 -129.482 501.077 -130.242 504.303 -130.987L504.191 -131.474C507.419 -132.22 510.653 -132.951 513.893 -133.669L514.001 -133.181C517.24 -133.898 520.484 -134.601 523.733 -135.29L523.63 -135.779C526.881 -136.468 530.137 -137.143 533.399 -137.804L533.499 -137.314C536.755 -137.974 540.016 -138.619 543.283 -139.25L543.188 -139.741C546.434 -140.368 549.685 -140.981 552.941 -141.58L553.032 -141.088C556.287 -141.687 559.547 -142.271 562.813 -142.842L562.727 -143.334C565.994 -143.905 569.266 -144.461 572.543 -145.003L572.625 -144.51C575.901 -145.052 579.182 -145.58 582.468 -146.093L582.391 -146.587C585.679 -147.1 588.971 -147.599 592.269 -148.084L592.342 -147.59C595.613 -148.07 598.888 -148.537 602.169 -148.989L602.101 -149.485C605.378 -149.937 608.661 -150.374 611.948 -150.798L612.011 -150.302C615.297 -150.725 618.587 -151.134 621.882 -151.529L621.823 -152.025C625.119 -152.42 628.42 -152.8 631.726 -153.166L631.781 -152.669C635.085 -153.035 638.394 -153.386 641.707 -153.723L641.657 -154.221C644.957 -154.556 648.262 -154.878 651.571 -155.184L651.617 -154.687C654.906 -154.992 658.2 -155.282 661.498 -155.559L661.456 -156.057C664.756 -156.333 668.06 -156.596 671.368 -156.843L671.405 -156.345C674.712 -156.592 678.023 -156.826 681.338 -157.044L681.305 -157.543C684.621 -157.762 687.942 -157.967 691.267 -158.157L691.295 -157.657C694.619 -157.847 697.946 -158.023 701.277 -158.183L701.253 -158.683C704.55 -158.842 707.851 -158.986 711.156 -159.117L711.175 -158.617C714.479 -158.748 717.786 -158.864 721.097 -158.965L721.081 -159.465C724.394 -159.567 727.71 -159.654 731.03 -159.727L731.041 -159.227C734.36 -159.299 737.682 -159.358 741.008 -159.401L741.002 -159.901C744.329 -159.945 747.66 -159.974 750.995 -159.989L750.997 -159.489C752.664 -159.496 754.331 -159.5 756 -159.5C757.669 -159.5 759.337 -159.496 761.004 -159.489L761.006 -159.989C764.341 -159.974 767.672 -159.945 771 -159.901L770.993 -159.401C774.319 -159.358 777.642 -159.299 780.96 -159.227L780.971 -159.727C784.291 -159.654 787.607 -159.567 790.92 -159.465L790.904 -158.965C794.216 -158.864 797.523 -158.748 800.826 -158.617L800.846 -159.117C804.15 -158.986 807.451 -158.842 810.748 -158.683L810.724 -158.183C814.055 -158.022 817.383 -157.847 820.706 -157.657L820.734 -158.157C824.059 -157.967 827.38 -157.762 830.697 -157.543L830.664 -157.044C833.979 -156.826 837.29 -156.592 840.596 -156.345L840.634 -156.843C843.942 -156.595 847.246 -156.333 850.545 -156.057L850.503 -155.559C853.801 -155.282 857.095 -154.991 860.385 -154.686L860.431 -155.184C863.74 -154.877 867.044 -154.556 870.344 -154.221L870.294 -153.723C873.607 -153.386 876.916 -153.035 880.22 -152.669L880.275 -153.166C883.581 -152.8 886.882 -152.42 890.179 -152.025L890.119 -151.528C893.414 -151.134 896.704 -150.725 899.99 -150.302L900.054 -150.798C903.341 -150.374 906.623 -149.936 909.9 -149.484L909.832 -148.989C913.113 -148.537 916.389 -148.07 919.66 -147.589L919.732 -148.084C923.03 -147.599 926.323 -147.1 929.61 -146.587L929.533 -146.093C932.819 -145.579 936.1 -145.052 939.376 -144.51L939.458 -145.003C942.735 -144.461 946.007 -143.905 949.274 -143.334L949.188 -142.842C952.454 -142.271 955.714 -141.687 958.969 -141.088L959.06 -141.58C962.316 -140.981 965.567 -140.368 968.813 -139.741L968.718 -139.25C971.985 -138.619 975.246 -137.973 978.502 -137.314L978.602 -137.804C981.864 -137.143 985.12 -136.468 988.372 -135.779L988.268 -135.289C991.517 -134.601 994.761 -133.897 998 -133.18L998.108 -133.668C1001.35 -132.951 1004.58 -132.219 1007.81 -131.474L1007.7 -130.987C1010.92 -130.241 1014.15 -129.482 1017.36 -128.709L1017.48 -129.195C1020.71 -128.418 1023.93 -127.628 1027.15 -126.823L1027.03 -126.338C1030.26 -125.531 1033.48 -124.709 1036.69 -123.874L1036.82 -124.358C1040.04 -123.522 1043.25 -122.672 1046.45 -121.809L1046.32 -121.326C1049.53 -120.463 1052.73 -119.586 1055.92 -118.694L1056.05 -119.176C1059.24 -118.285 1062.43 -117.379 1065.61 -116.46L1065.47 -115.98C1068.66 -115.059 1071.84 -114.125 1075.01 -113.177L1075.15 -113.656C1078.34 -112.703 1081.52 -111.736 1084.7 -110.754L1084.55 -110.277C1087.73 -109.296 1090.9 -108.302 1094.06 -107.293L1094.21 -107.77C1097.38 -106.761 1100.53 -105.739 1103.68 -104.703L1103.53 -104.228C1106.68 -103.192 1109.82 -102.143 1112.95 -101.08L1113.11 -101.553C1116.25 -100.49 1119.38 -99.4122 1122.51 -98.3213L1122.34 -97.8493C1125.48 -96.7522 1128.62 -95.6415 1131.75 -94.5171L1131.92 -94.9876C1135.05 -93.8628 1138.17 -92.7243 1141.28 -91.5722L1141.11 -91.1032C1144.22 -89.9517 1147.33 -88.7866 1150.43 -87.608L1150.61 -88.0753C1153.71 -86.8962 1156.8 -85.7036 1159.89 -84.4976L1159.71 -84.0319C1162.79 -82.8264 1165.87 -81.6076 1168.94 -80.3754L1169.12 -80.8394C1172.21 -79.6005 1175.29 -78.3482 1178.36 -77.0824L1178.17 -76.6201C1181.25 -75.3539 1184.31 -74.0743 1187.37 -72.7814L1187.56 -73.2419C1190.62 -71.9484 1193.68 -70.6416 1196.72 -69.3214L1196.52 -68.8627C1199.56 -67.5432 1202.6 -66.2105 1205.63 -64.8645L1205.83 -65.3214C1208.86 -63.9749 1211.88 -62.6151 1214.89 -61.2423L1214.69 -60.7873C1217.71 -59.4101 1220.72 -58.0196 1223.73 -56.616L1223.94 -57.0691C1226.96 -55.6627 1229.96 -54.2431 1232.96 -52.8104L1232.74 -52.3593C1235.74 -50.9273 1238.73 -49.4822 1241.71 -48.0241L1241.93 -48.4732C1244.91 -47.0145 1247.88 -45.5427 1250.84 -44.058L1250.62 -43.611C1253.58 -42.127 1256.54 -40.63 1259.48 -39.1203L1259.71 -39.5653C1262.67 -38.0507 1265.62 -36.5232 1268.56 -34.9828L1268.32 -34.5399C1271.27 -32.9971 1274.2 -31.4415 1277.13 -29.873L1277.37 -30.3137C1280.29 -28.7445 1283.21 -27.1625 1286.12 -25.5677L1285.88 -25.1292C1288.79 -23.5352 1291.69 -21.9285 1294.59 -20.3091L1294.83 -20.7453C1297.72 -19.1252 1300.61 -17.4924 1303.48 -15.8471L1303.24 -15.4131C1306.12 -13.7652 1308.99 -12.1046 1311.85 -10.4315L1312.1 -10.8632C1314.97 -9.1855 1317.84 -7.49515 1320.69 -5.7923L1320.43 -5.36298C1323.28 -3.66092 1326.12 -1.94635 1328.96 -0.219345L1329.22 -0.646271C1332.05 1.08154 1334.88 2.82181 1337.69 4.57442L1337.43 4.99889C1340.24 6.75067 1343.05 8.51482 1345.84 10.2912L1346.11 9.8692C1348.91 11.6491 1351.71 13.4413 1354.49 15.2458L1354.22 15.6653C1357.01 17.4733 1359.78 19.2935 1362.55 21.126L1362.83 20.709C1365.6 22.5424 1368.36 24.3879 1371.11 26.2455L1370.83 26.6599C1373.58 28.5167 1376.32 30.3856 1379.05 32.2665L1379.34 31.8548C1382.07 33.7366 1384.79 35.6305 1387.5 37.5364L1387.21 37.9455C1389.93 39.8526 1392.63 41.7716 1395.33 43.7026L1395.62 43.2962C1398.32 45.2327 1401.01 47.1812 1403.69 49.1416L1403.4 49.5453C1406.08 51.5047 1408.75 53.476 1411.41 55.4591L1411.71 55.0583C1414.37 57.0423 1417.02 59.0381 1419.66 61.0457L1419.36 61.4438C1422 63.4504 1424.63 65.4687 1427.25 67.4987L1427.55 67.1035C1430.18 69.1361 1432.79 71.1804 1435.39 73.2363L1435.08 73.6286C1437.69 75.6882 1440.28 77.7594 1442.87 79.8421L1443.18 79.4528C1445.77 81.5365 1448.34 83.6318 1450.91 85.7385L1450.59 86.1249C1453.16 88.2306 1455.71 90.3478 1458.25 92.4763L1458.57 92.0929C1461.12 94.2225 1463.65 96.3634 1466.17 98.5156L1465.85 98.896C1468.37 101.049 1470.89 103.213 1473.39 105.388L1473.71 105.01C1476.22 107.191 1478.72 109.383 1481.2 111.586L1480.87 111.96C1483.36 114.162 1485.83 116.376 1488.29 118.6L1488.63 118.229C1491.09 120.454 1493.54 122.691 1495.98 124.938L1495.64 125.306C1498.08 127.553 1500.51 129.81 1502.93 132.079L1503.27 131.714C1505.69 133.985 1508.1 136.266 1510.5 138.559L1510.15 138.92C1512.55 141.216 1514.94 143.522 1517.32 145.839L1517.66 145.481C1520.04 147.799 1522.41 150.129 1524.76 152.468L1524.41 152.823C1526.76 155.162 1529.11 157.511 1531.44 159.871L1531.79 159.52C1534.12 161.881 1536.44 164.253 1538.75 166.636L1538.39 166.983C1540.7 169.366 1543 171.759 1545.28 174.162L1545.64 173.818C1547.93 176.226 1550.21 178.644 1552.47 181.073L1552.1 181.414C1554.37 183.842 1556.62 186.28 1558.86 188.729L1559.23 188.391C1561.47 190.841 1563.69 193.301 1565.91 195.772L1565.54 196.105C1567.75 198.575 1569.96 201.054 1572.14 203.544L1572.52 203.213C1574.71 205.705 1576.89 208.207 1579.06 210.719L1578.68 211.045C1580.85 213.559 1583 216.082 1585.15 218.616L1585.53 218.293C1587.67 220.828 1589.81 223.373 1591.92 225.928L1591.54 226.247C1593.66 228.801 1595.76 231.364 1597.86 233.938L1598.24 233.622C1600.34 236.197 1602.42 238.781 1604.49 241.376L1604.1 241.687C1606.16 244.281 1608.22 246.884 1610.26 249.497L1610.66 249.19C1612.7 251.806 1614.73 254.432 1616.75 257.067L1616.35 257.371C1618.37 260.006 1620.38 262.65 1622.37 265.303L1622.77 265.003C1624.76 267.658 1626.74 270.322 1628.71 272.996L1628.3 273.292C1630.27 275.965 1632.22 278.646 1634.16 281.338L1634.56 281.045C1636.5 283.738 1638.43 286.441 1640.34 289.152L1639.94 289.44C1641.85 292.151 1643.75 294.872 1645.63 297.601L1646.04 297.317C1647.93 300.048 1649.81 302.788 1651.67 305.537L1651.25 305.817C1653.11 308.565 1654.96 311.322 1656.79 314.088L1657.2 313.812C1659.04 316.579 1660.86 319.356 1662.66 322.141L1662.24 322.413C1664.05 325.197 1665.84 327.989 1667.61 330.791L1668.03 330.523C1669.81 333.326 1671.58 336.137 1673.33 338.958L1672.9 339.221C1674.65 342.04 1676.38 344.868 1678.1 347.704L1678.53 347.445C1680.25 350.282 1681.96 353.129 1683.65 355.984L1683.22 356.239C1684.92 359.092 1686.6 361.954 1688.26 364.825L1688.69 364.574C1690.36 367.446 1692.01 370.326 1693.64 373.214L1693.21 373.46C1694.84 376.346 1696.46 379.239 1698.07 382.141L1698.51 381.899C1700.11 384.802 1701.71 387.714 1703.28 390.634L1702.84 390.872C1704.42 393.79 1705.98 396.717 1707.53 399.652L1707.97 399.419C1709.52 402.355 1711.06 405.3 1712.58 408.252L1712.13 408.481C1713.65 411.431 1715.15 414.388 1716.64 417.354L1717.09 417.13C1718.58 420.094 1720.05 423.066 1721.51 426.046L1721.06 426.266C1722.52 429.244 1723.96 432.23 1725.39 435.224L1725.84 435.009C1727.27 438.004 1728.69 441.008 1730.08 444.019L1729.63 444.229C1731.03 447.239 1732.41 450.256 1733.78 453.281L1734.24 453.075C1735.61 456.099 1736.96 459.13 1738.3 462.17L1737.84 462.371C1739.17 465.404 1740.5 468.444 1741.8 471.492L1742.26 471.295C1743.57 474.344 1744.86 477.401 1746.13 480.465L1745.67 480.657C1746.95 483.719 1748.2 486.789 1749.45 489.866L1749.91 489.678C1751.16 492.757 1752.39 495.843 1753.6 498.936L1753.14 499.118C1754.35 502.207 1755.54 505.302 1756.73 508.404L1757.19 508.226C1758.37 511.323 1759.54 514.428 1760.69 517.539L1760.22 517.712C1761.36 520.821 1762.5 523.938 1763.61 527.061L1764.09 526.892C1765.2 530.017 1766.3 533.149 1767.39 536.287L1766.92 536.451C1768 539.588 1769.07 542.731 1770.13 545.882L1770.6 545.723C1771.66 548.871 1772.69 552.026 1773.72 555.187L1773.24 555.341C1774.26 558.491 1775.26 561.648 1776.25 564.812L1776.73 564.663C1777.71 567.827 1778.69 570.999 1779.64 574.177L1779.16 574.321C1780.12 577.497 1781.06 580.679 1781.98 583.868L1782.46 583.729C1783.39 586.919 1784.29 590.116 1785.19 593.319L1784.71 593.453C1785.6 596.65 1786.47 599.854 1787.33 603.063L1787.81 602.934C1788.67 606.132 1789.51 609.337 1790.33 612.547L1789.85 612.672C1790.67 615.88 1791.48 619.095 1792.27 622.316L1792.75 622.196C1793.54 625.419 1794.32 628.647 1795.08 631.881L1794.59 631.995C1795.35 635.228 1796.09 638.466 1796.82 641.71L1797.3 641.601C1798.03 644.843 1798.74 648.09 1799.43 651.344L1798.94 651.448C1799.63 654.682 1800.31 657.922 1800.96 661.168L1801.45 661.069C1802.11 664.316 1802.75 667.569 1803.37 670.827L1802.88 670.921C1803.51 674.178 1804.11 677.439 1804.7 680.707L1805.2 680.618C1805.79 683.887 1806.36 687.161 1806.92 690.441L1806.43 690.525C1806.99 693.801 1807.53 697.082 1808.05 700.369L1808.55 700.29C1809.07 703.555 1809.57 706.825 1810.06 710.1L1809.57 710.173C1810.05 713.447 1810.53 716.725 1810.98 720.008L1811.48 719.94C1811.93 723.225 1812.37 726.515 1812.79 729.81L1812.3 729.873C1812.72 733.166 1813.13 736.464 1813.52 739.767L1814.01 739.709C1814.4 743.013 1814.77 746.323 1815.13 749.637L1814.63 749.69C1814.98 752.975 1815.32 756.264 1815.64 759.558L1816.14 759.51C1816.46 762.804 1816.76 766.102 1817.05 769.404L1816.55 769.448C1816.84 772.749 1817.11 776.054 1817.36 779.364L1817.86 779.326C1818.11 782.637 1818.35 785.953 1818.57 789.274L1818.07 789.307C1818.29 792.625 1818.49 795.948 1818.67 799.275L1819.17 799.247C1819.36 802.551 1819.53 805.858 1819.68 809.17L1819.18 809.193C1819.33 812.494 1819.46 815.799 1819.58 819.108L1820.08 819.091C1820.2 822.402 1820.3 825.716 1820.38 829.035L1819.88 829.048C1819.97 832.365 1820.04 835.686 1820.09 839.011L1820.59 839.004Z" stroke="white" stroke-dasharray="10 10"/>
<path opacity="0.45" d="M1511.84 838.956C1511.91 842.291 1511.96 845.632 1511.98 848.977L1511.48 848.981C1511.49 850.653 1511.5 852.326 1511.5 854C1511.5 855.674 1511.49 857.347 1511.48 859.019L1511.98 859.022C1511.96 862.368 1511.91 865.708 1511.84 869.043L1511.34 869.032C1511.27 872.365 1511.17 875.691 1511.05 879.012L1511.55 879.03C1511.43 882.354 1511.29 885.671 1511.12 888.983L1510.62 888.958C1510.46 892.295 1510.26 895.626 1510.05 898.951L1510.55 898.983C1510.33 902.318 1510.09 905.646 1509.83 908.968L1509.33 908.928C1509.07 912.248 1508.78 915.561 1508.47 918.868L1508.97 918.914C1508.66 922.227 1508.32 925.534 1507.97 928.833L1507.47 928.78C1507.11 932.103 1506.72 935.42 1506.32 938.73L1506.81 938.791C1506.4 942.103 1505.97 945.409 1505.52 948.707L1505.02 948.639C1504.57 951.935 1504.09 955.224 1503.59 958.506L1504.08 958.581C1503.58 961.878 1503.05 965.167 1502.5 968.449L1502.01 968.366C1501.46 971.659 1500.88 974.944 1500.28 978.221L1500.77 978.311C1500.17 981.591 1499.55 984.863 1498.91 988.127L1498.42 988.03C1497.77 991.292 1497.1 994.546 1496.41 997.793L1496.9 997.897C1496.2 1001.16 1495.48 1004.42 1494.74 1007.67L1494.25 1007.56C1493.51 1010.81 1492.75 1014.06 1491.96 1017.29L1492.45 1017.41C1491.66 1020.65 1490.84 1023.87 1490.01 1027.09L1489.53 1026.97C1488.69 1030.19 1487.83 1033.41 1486.95 1036.61L1487.44 1036.74C1486.55 1039.96 1485.64 1043.17 1484.71 1046.38L1484.23 1046.24C1483.3 1049.44 1482.35 1052.63 1481.38 1055.81L1481.86 1055.95C1480.88 1059.14 1479.88 1062.31 1478.86 1065.48L1478.39 1065.33C1477.37 1068.5 1476.32 1071.66 1475.25 1074.82L1475.73 1074.98C1474.66 1078.14 1473.57 1081.29 1472.45 1084.43L1471.98 1084.26C1470.87 1087.4 1469.74 1090.53 1468.58 1093.65L1469.05 1093.82C1467.89 1096.94 1466.71 1100.06 1465.51 1103.16L1465.04 1102.98C1463.84 1106.09 1462.61 1109.19 1461.36 1112.28L1461.83 1112.46C1460.58 1115.55 1459.31 1118.63 1458.02 1121.7L1457.56 1121.51C1456.27 1124.58 1454.95 1127.64 1453.62 1130.68L1454.08 1130.88C1452.74 1133.94 1451.38 1136.98 1450 1140.01L1449.55 1139.81C1448.17 1142.84 1446.77 1145.86 1445.34 1148.87L1445.8 1149.09C1444.37 1152.1 1442.93 1155.1 1441.46 1158.09L1441.01 1157.87C1439.55 1160.86 1438.06 1163.84 1436.56 1166.81L1437 1167.03C1435.49 1170 1433.96 1172.97 1432.41 1175.92L1431.97 1175.68C1430.42 1178.63 1428.85 1181.57 1427.26 1184.49L1427.7 1184.73C1426.11 1187.66 1424.49 1190.57 1422.86 1193.48L1422.43 1193.23C1420.79 1196.13 1419.14 1199.02 1417.47 1201.9L1417.9 1202.15C1416.23 1205.04 1414.53 1207.9 1412.82 1210.76L1412.39 1210.5C1410.67 1213.36 1408.94 1216.2 1407.19 1219.03L1407.61 1219.3C1405.86 1222.13 1404.08 1224.95 1402.29 1227.76L1401.87 1227.49C1400.08 1230.29 1398.26 1233.09 1396.43 1235.87L1396.85 1236.14C1395.02 1238.92 1393.16 1241.69 1391.29 1244.45L1390.88 1244.17C1389.01 1246.92 1387.12 1249.67 1385.21 1252.39L1385.62 1252.68C1383.71 1255.41 1381.78 1258.13 1379.83 1260.83L1379.43 1260.54C1377.48 1263.24 1375.52 1265.93 1373.53 1268.6L1373.93 1268.9C1371.95 1271.58 1369.95 1274.24 1367.92 1276.89L1367.53 1276.59C1365.51 1279.23 1363.47 1281.87 1361.41 1284.49L1361.8 1284.8C1359.75 1287.41 1357.67 1290.02 1355.58 1292.61L1355.19 1292.3C1353.1 1294.89 1350.99 1297.46 1348.86 1300.02L1349.24 1300.34C1347.12 1302.91 1344.97 1305.46 1342.8 1307.99L1342.42 1307.67C1340.26 1310.2 1338.08 1312.72 1335.88 1315.22L1336.26 1315.55C1334.06 1318.05 1331.85 1320.54 1329.62 1323.01L1329.25 1322.68C1327.02 1325.15 1324.77 1327.61 1322.5 1330.05L1322.87 1330.39C1320.6 1332.83 1318.32 1335.26 1316.02 1337.68L1315.66 1337.33C1313.36 1339.74 1311.05 1342.13 1308.72 1344.51L1309.08 1344.86C1306.75 1347.24 1304.4 1349.61 1302.04 1351.96L1301.69 1351.6C1299.33 1353.95 1296.95 1356.28 1294.55 1358.6L1294.9 1358.96C1292.51 1361.28 1290.1 1363.58 1287.67 1365.86L1287.33 1365.5C1284.91 1367.78 1282.47 1370.05 1280.02 1372.3L1280.35 1372.67C1277.9 1374.92 1275.43 1377.15 1272.94 1379.37L1272.61 1379C1270.12 1381.22 1267.62 1383.42 1265.11 1385.61L1265.44 1385.99C1262.92 1388.17 1260.4 1390.34 1257.85 1392.49L1257.53 1392.11C1254.99 1394.26 1252.43 1396.39 1249.86 1398.51L1250.18 1398.89C1247.61 1401.01 1245.02 1403.11 1242.42 1405.2L1242.1 1404.81C1239.51 1406.89 1236.89 1408.95 1234.26 1411L1234.57 1411.4C1231.95 1413.44 1229.31 1415.47 1226.66 1417.49L1226.35 1417.09C1223.7 1419.1 1221.04 1421.1 1218.36 1423.07L1218.65 1423.48C1215.97 1425.46 1213.27 1427.42 1210.56 1429.36L1210.27 1428.96C1207.57 1430.9 1204.85 1432.82 1202.12 1434.72L1202.41 1435.13C1199.68 1437.04 1196.94 1438.93 1194.18 1440.8L1193.9 1440.38C1191.14 1442.25 1188.37 1444.11 1185.59 1445.94L1185.87 1446.36C1183.08 1448.19 1180.29 1450.01 1177.48 1451.81L1177.21 1451.39C1174.41 1453.18 1171.6 1454.96 1168.77 1456.72L1169.04 1457.14C1166.21 1458.9 1163.37 1460.64 1160.52 1462.37L1160.26 1461.94C1157.41 1463.66 1154.54 1465.37 1151.67 1467.06L1151.92 1467.49C1149.05 1469.17 1146.16 1470.84 1143.27 1472.49L1143.02 1472.05C1140.13 1473.7 1137.23 1475.32 1134.31 1476.93L1134.55 1477.37C1131.64 1478.98 1128.71 1480.57 1125.77 1482.15L1125.53 1481.7C1122.59 1483.28 1119.64 1484.83 1116.68 1486.37L1116.91 1486.81C1113.96 1488.34 1111 1489.85 1108.02 1491.35L1107.8 1490.9C1104.82 1492.39 1101.84 1493.87 1098.84 1495.32L1099.06 1495.77C1096.07 1497.23 1093.06 1498.67 1090.04 1500.08L1089.82 1499.63C1086.81 1501.05 1083.78 1502.45 1080.75 1503.82L1080.96 1504.28C1077.93 1505.65 1074.89 1507.01 1071.84 1508.35L1071.64 1507.89C1068.59 1509.23 1065.53 1510.54 1062.47 1511.84L1062.66 1512.3C1059.59 1513.6 1056.51 1514.88 1053.42 1516.14L1053.23 1515.68C1050.15 1516.94 1047.06 1518.17 1043.96 1519.39L1044.14 1519.86C1041.05 1521.07 1037.94 1522.27 1034.83 1523.45L1034.65 1522.98C1031.54 1524.16 1028.41 1525.32 1025.28 1526.45L1025.45 1526.92C1022.31 1528.06 1019.17 1529.18 1016.01 1530.29L1015.85 1529.81C1012.71 1530.91 1009.57 1531.98 1006.41 1533.04L1006.57 1533.51C1003.42 1534.56 1000.25 1535.6 997.08 1536.62L996.927 1536.14C993.755 1537.16 990.573 1538.15 987.383 1539.13L987.529 1539.61C984.343 1540.58 981.147 1541.54 977.943 1542.47L977.803 1541.99C974.616 1542.92 971.42 1543.84 968.216 1544.73L968.35 1545.21C965.143 1546.1 961.928 1546.97 958.704 1547.83L958.576 1547.34C955.354 1548.19 952.123 1549.03 948.884 1549.84L949.006 1550.32C945.779 1551.13 942.543 1551.92 939.3 1552.69L939.184 1552.21C935.953 1552.97 932.714 1553.72 929.466 1554.44L929.575 1554.93C926.326 1555.66 923.068 1556.37 919.802 1557.05L919.699 1556.56C916.436 1557.25 913.164 1557.92 909.885 1558.56L909.982 1559.05C906.723 1559.7 903.457 1560.32 900.184 1560.92L900.093 1560.43C896.826 1561.03 893.551 1561.61 890.27 1562.17L890.354 1562.66C887.07 1563.23 883.778 1563.77 880.48 1564.29L880.402 1563.79C877.107 1564.31 873.805 1564.81 870.496 1565.29L870.568 1565.79C867.285 1566.26 863.995 1566.72 860.699 1567.15L860.634 1566.66C857.339 1567.09 854.038 1567.5 850.73 1567.9L850.79 1568.4C847.48 1568.79 844.163 1569.16 840.84 1569.52L840.787 1569.02C837.474 1569.37 834.155 1569.7 830.83 1570.02L830.876 1570.51C827.573 1570.82 824.264 1571.11 820.949 1571.38L820.909 1570.88C817.596 1571.15 814.277 1571.4 810.952 1571.63L810.986 1572.12C807.659 1572.35 804.326 1572.56 800.987 1572.75L800.959 1572.25C797.637 1572.43 794.308 1572.6 790.974 1572.74L790.996 1573.24C787.682 1573.39 784.362 1573.51 781.037 1573.61L781.022 1573.11C777.699 1573.22 774.371 1573.3 771.037 1573.36L771.046 1573.86C767.71 1573.92 764.369 1573.96 761.023 1573.98L761.02 1573.48C760.16 1573.49 759.299 1573.49 758.438 1573.5C757.626 1573.5 756.813 1573.5 756 1573.5C754.326 1573.5 752.652 1573.49 750.98 1573.48L750.977 1573.98C747.631 1573.96 744.29 1573.92 740.954 1573.86L740.964 1573.36C737.63 1573.3 734.301 1573.22 730.978 1573.11L730.963 1573.61C727.638 1573.51 724.318 1573.39 721.004 1573.24L721.026 1572.74C717.692 1572.6 714.364 1572.43 711.041 1572.25L711.013 1572.75C707.674 1572.56 704.341 1572.35 701.014 1572.12L701.048 1571.63C697.723 1571.4 694.404 1571.15 691.091 1570.88L691.051 1571.38C687.736 1571.11 684.427 1570.82 681.125 1570.51L681.171 1570.02C677.845 1569.7 674.526 1569.37 671.213 1569.02L671.16 1569.52C667.837 1569.16 664.521 1568.79 661.211 1568.4L661.27 1567.9C657.963 1567.5 654.661 1567.09 651.367 1566.66L651.302 1567.15C648.005 1566.72 644.716 1566.26 641.433 1565.79L641.505 1565.29C638.196 1564.81 634.894 1564.31 631.599 1563.79L631.521 1564.29C628.222 1563.77 624.931 1563.23 621.647 1562.66L621.731 1562.17C618.449 1561.61 615.175 1561.03 611.908 1560.43L611.817 1560.92C608.544 1560.32 605.277 1559.7 602.019 1559.05L602.116 1558.56C598.836 1557.92 595.565 1557.25 592.301 1556.56L592.199 1557.05C588.933 1556.37 585.675 1555.66 582.426 1554.93L582.535 1554.44C579.287 1553.72 576.048 1552.97 572.817 1552.21L572.701 1552.69C569.458 1551.92 566.222 1551.13 562.995 1550.32L563.117 1549.84C559.878 1549.03 556.647 1548.19 553.425 1547.34L553.297 1547.83C550.073 1546.97 546.857 1546.1 543.651 1545.21L543.785 1544.73C540.58 1543.84 537.385 1542.92 534.198 1541.99L534.058 1542.47C530.853 1541.54 527.658 1540.58 524.472 1539.61L524.618 1539.13C521.427 1538.15 518.246 1537.16 515.074 1536.14L514.921 1536.62C511.747 1535.6 508.582 1534.56 505.427 1533.51L505.586 1533.04C502.432 1531.98 499.289 1530.91 496.155 1529.81L495.99 1530.29C492.834 1529.18 489.688 1528.06 486.552 1526.92L486.723 1526.45C483.589 1525.32 480.465 1524.16 477.351 1522.98L477.174 1523.45C474.058 1522.27 470.953 1521.07 467.858 1519.86L468.04 1519.39C464.941 1518.17 461.852 1516.94 458.774 1515.68L458.585 1516.14C455.492 1514.88 452.411 1513.6 449.34 1512.3L449.535 1511.84C446.466 1510.54 443.408 1509.23 440.361 1507.89L440.16 1508.35C437.111 1507.01 434.072 1505.65 431.045 1504.28L431.252 1503.82C428.216 1502.45 425.191 1501.05 422.177 1499.63L421.965 1500.08C418.944 1498.67 415.935 1497.23 412.937 1495.77L413.156 1495.32C410.16 1493.87 407.176 1492.39 404.204 1490.9L403.979 1491.35C401.004 1489.85 398.041 1488.34 395.089 1486.81L395.319 1486.37C392.356 1484.83 389.405 1483.28 386.467 1481.71L386.231 1482.15C383.29 1480.57 380.361 1478.98 377.445 1477.37L377.687 1476.93C374.773 1475.32 371.871 1473.7 368.981 1472.05L368.734 1472.49C365.837 1470.84 362.952 1469.17 360.081 1467.49L360.334 1467.06C357.457 1465.37 354.593 1463.66 351.742 1461.94L351.483 1462.37C348.631 1460.64 345.791 1458.9 342.964 1457.14L343.228 1456.72C340.403 1454.96 337.591 1453.18 334.793 1451.39L334.523 1451.81C331.713 1450.01 328.917 1448.19 326.134 1446.36L326.409 1445.94C323.627 1444.11 320.858 1442.25 318.103 1440.38L317.822 1440.8C315.065 1438.93 312.322 1437.04 309.592 1435.13L309.878 1434.72C307.148 1432.82 304.432 1430.9 301.73 1428.96L301.438 1429.36C298.727 1427.42 296.03 1425.46 293.348 1423.48L293.645 1423.07C290.964 1421.1 288.298 1419.1 285.646 1417.09L285.344 1417.49C282.691 1415.47 280.052 1413.44 277.428 1411.4L277.735 1411C275.107 1408.95 272.493 1406.89 269.895 1404.81L269.582 1405.2C266.98 1403.11 264.392 1401.01 261.819 1398.89L262.137 1398.51C259.566 1396.39 257.011 1394.26 254.471 1392.11L254.148 1392.49C251.605 1390.34 249.077 1388.17 246.565 1385.99L246.893 1385.61C244.376 1383.42 241.876 1381.22 239.391 1379L239.057 1379.37C236.571 1377.15 234.1 1374.92 231.645 1372.67L231.983 1372.3C229.53 1370.05 227.092 1367.78 224.671 1365.5L224.328 1365.86C221.902 1363.58 219.492 1361.28 217.098 1358.96L217.446 1358.6C215.051 1356.28 212.673 1353.95 210.312 1351.6L209.959 1351.96C207.596 1349.61 205.25 1347.24 202.92 1344.86L203.277 1344.51C200.949 1342.13 198.637 1339.74 196.343 1337.33L195.981 1337.68C193.68 1335.26 191.397 1332.83 189.13 1330.39L189.497 1330.05C187.232 1327.61 184.984 1325.15 182.754 1322.68L182.383 1323.01C180.151 1320.54 177.937 1318.05 175.74 1315.55L176.115 1315.22C173.918 1312.72 171.739 1310.2 169.577 1307.67L169.196 1307.99C167.032 1305.46 164.884 1302.91 162.755 1300.34L163.14 1300.02C161.012 1297.46 158.902 1294.89 156.811 1292.3L156.422 1292.61C154.328 1290.02 152.253 1287.41 150.197 1284.8L150.59 1284.49C148.532 1281.87 146.493 1279.23 144.473 1276.59L144.075 1276.89C142.054 1274.24 140.05 1271.58 138.065 1268.9L138.467 1268.6C136.484 1265.93 134.519 1263.24 132.573 1260.54L132.167 1260.83C130.22 1258.13 128.291 1255.41 126.381 1252.68L126.791 1252.39C124.882 1249.67 122.993 1246.92 121.122 1244.17L120.709 1244.45C118.837 1241.69 116.984 1238.92 115.151 1236.14L115.569 1235.87C113.737 1233.09 111.924 1230.29 110.132 1227.49L109.71 1227.76C107.917 1224.95 106.142 1222.13 104.388 1219.3L104.813 1219.03C103.06 1216.2 101.326 1213.36 99.613 1210.5L99.1842 1210.76C97.4696 1207.9 95.7749 1205.04 94.1004 1202.15L94.5327 1201.9C92.8599 1199.02 91.2072 1196.13 89.5748 1193.23L89.1391 1193.48C87.5063 1190.57 85.8938 1187.66 84.3018 1184.73L84.741 1184.49C83.1502 1181.57 81.5798 1178.63 80.03 1175.68L79.5874 1175.92C78.0366 1172.97 76.5063 1170 74.9969 1167.03L75.4428 1166.81C73.9365 1163.84 72.4511 1160.86 70.9866 1157.87L70.5376 1158.09C69.0722 1155.1 67.6278 1152.1 66.2046 1149.09L66.6567 1148.87C65.2344 1145.86 63.8333 1142.84 62.4535 1139.81L61.9983 1140.01C60.6187 1136.98 59.2604 1133.94 57.9234 1130.88L58.3815 1130.68C57.0475 1127.64 55.7349 1124.58 54.4439 1121.51L53.983 1121.71C52.691 1118.64 51.4206 1115.55 50.1719 1112.46L50.6355 1112.28C49.3877 1109.19 48.1617 1106.09 46.9575 1102.98L46.4913 1103.16C45.2895 1100.06 44.1095 1096.94 42.9515 1093.82L43.4203 1093.65C42.2638 1090.53 41.1292 1087.4 40.0168 1084.26L39.5455 1084.43C38.4322 1081.29 37.3411 1078.14 36.2723 1074.98L36.7459 1074.82C35.6791 1071.66 34.6345 1068.5 33.6124 1065.33L33.1364 1065.48C32.1167 1062.31 31.1192 1059.14 30.1442 1055.96L30.6223 1055.81C29.648 1052.63 28.6961 1049.44 27.7669 1046.24L27.2867 1046.38C26.3568 1043.18 25.4496 1039.96 24.5651 1036.74L25.0473 1036.61C24.1668 1033.41 23.3089 1030.19 22.4739 1026.97L21.9898 1027.1C21.1555 1023.88 20.3438 1020.65 19.5551 1017.41L20.0409 1017.29C19.2528 1014.06 18.4876 1010.81 17.7454 1007.56L17.2579 1007.67C16.5159 1004.42 15.7968 1001.16 15.101 997.898L15.59 997.794C14.8986 994.547 14.2302 991.293 13.5848 988.031L13.0944 988.128C12.4486 984.864 11.8259 981.592 11.2265 978.312L11.7184 978.222C11.1195 974.945 10.5438 971.66 9.99163 968.367L9.49852 968.45C8.94811 965.168 8.42099 961.879 7.91732 958.582L8.41158 958.507C7.91016 955.225 7.43199 951.936 6.97725 948.64L6.48194 948.708C6.02687 945.41 5.59525 942.104 5.18723 938.792L5.68348 938.731C5.27576 935.421 4.89162 932.104 4.53125 928.78L4.03416 928.834C3.67636 925.534 3.34196 922.228 3.03112 918.915L3.52893 918.868C3.21866 915.562 2.93188 912.248 2.66875 908.929L2.17031 908.968C1.90699 905.646 1.66733 902.318 1.45151 898.984L1.95047 898.952C1.73527 895.627 1.54377 892.296 1.37615 888.959L0.876773 888.984C0.710403 885.672 0.567528 882.354 0.448304 879.031L0.947983 879.013C0.828844 875.692 0.733339 872.365 0.661623 869.033L0.161739 869.044C0.0899713 865.709 0.04201 862.368 0.0180098 859.023L0.517997 859.019C0.506005 857.347 0.5 855.674 0.5 854C0.5 852.326 0.506004 850.653 0.517993 848.981L0.0180059 848.978C0.0420035 845.632 0.0899624 842.292 0.161727 838.957L0.661612 838.968C0.733325 835.635 0.828826 832.309 0.947961 828.988L0.448282 828.97C0.567503 825.646 0.710374 822.329 0.876739 819.017L1.37611 819.042C1.54373 815.705 1.73522 812.374 1.95042 809.049L1.45147 809.017C1.66729 805.683 1.90693 802.354 2.17025 799.032L2.66869 799.072C2.93182 795.752 3.21859 792.439 3.52886 789.132L3.03105 789.086C3.34189 785.773 3.67628 782.466 4.03408 779.167L4.53117 779.22C4.89154 775.897 5.27566 772.58 5.68338 769.27L5.18713 769.209C5.59514 765.897 6.02676 762.591 6.48182 759.293L6.97713 759.361C7.43186 756.065 7.91002 752.776 8.41144 749.494L7.91718 749.419C8.42084 746.122 8.94796 742.833 9.49836 739.551L9.99147 739.634C10.5437 736.341 11.1193 733.056 11.7182 729.779L11.2263 729.689C11.8257 726.409 12.4484 723.137 13.0942 719.873L13.5846 719.97C14.23 716.708 14.8984 713.454 15.5898 710.207L15.1008 710.103C15.7966 706.836 16.5156 703.577 17.2577 700.326L17.7452 700.438C18.4873 697.186 19.2526 693.944 20.0407 690.709L19.5549 690.591C20.3436 687.354 21.1552 684.125 21.9896 680.905L22.4736 681.031C23.3087 677.808 24.1665 674.594 25.047 671.389L24.5649 671.256C25.4493 668.037 26.3566 664.826 27.2865 661.624L27.7666 661.763C28.6958 658.564 29.6477 655.373 30.622 652.191L30.1439 652.045C31.1189 648.861 32.1164 645.686 33.1362 642.521L33.6121 642.674C34.6343 639.501 35.6788 636.338 36.7456 633.184L36.272 633.024C37.3408 629.864 38.432 626.713 39.5452 623.572L40.0165 623.74C41.129 620.601 42.2635 617.472 43.4201 614.353L42.9513 614.179C44.1093 611.057 45.2892 607.944 46.491 604.841L46.9573 605.021C48.1614 601.912 49.3875 598.813 50.6352 595.724L50.1716 595.537C51.4203 592.446 52.6907 589.365 53.9827 586.295L54.4436 586.489C55.7346 583.421 57.0472 580.363 58.3812 577.316L57.9232 577.116C59.2601 574.062 60.6185 571.019 61.9981 567.987L62.4532 568.194C63.8331 565.161 65.2342 562.139 66.6564 559.128L66.2043 558.915C67.6276 555.902 69.072 552.9 70.5373 549.909L70.9863 550.129C72.4508 547.14 73.9363 544.162 75.4425 541.195L74.9967 540.969C76.5061 537.996 78.0363 535.034 79.5872 532.084L80.0297 532.317C81.5795 529.369 83.15 526.432 84.7408 523.508L84.3016 523.269C85.8936 520.342 87.5061 517.427 89.1388 514.524L89.5746 514.769C91.207 511.867 92.8597 508.976 94.5325 506.098L94.1002 505.846C95.7747 502.965 97.4694 500.096 99.1841 497.238L99.6128 497.496C101.326 494.641 103.06 491.798 104.813 488.967L104.388 488.704C106.142 485.872 107.916 483.052 109.71 480.244L110.131 480.513C111.924 477.708 113.737 474.914 115.569 472.134L115.151 471.859C116.984 469.076 118.837 466.307 120.708 463.55L121.122 463.831C122.993 461.076 124.882 458.334 126.791 455.605L126.381 455.319C128.291 452.589 130.22 449.872 132.167 447.168L132.573 447.461C134.519 444.76 136.484 442.072 138.467 439.397L138.065 439.099C140.05 436.423 142.053 433.76 144.075 431.111L144.473 431.415C146.493 428.767 148.532 426.134 150.59 423.514L150.196 423.205C152.253 420.586 154.328 417.98 156.422 415.389L156.81 415.703C158.902 413.113 161.012 410.537 163.14 407.976L162.755 407.656C164.884 405.093 167.032 402.544 169.196 400.009L169.577 400.333C171.739 397.802 173.918 395.285 176.115 392.782L175.74 392.452C177.937 389.949 180.151 387.461 182.383 384.988L182.754 385.323C184.984 382.851 187.232 380.394 189.497 377.951L189.13 377.611C191.397 375.167 193.68 372.737 195.981 370.323L196.343 370.668C198.637 368.259 200.949 365.866 203.278 363.487L202.92 363.137C205.25 360.757 207.596 358.392 209.959 356.043L210.312 356.397C212.673 354.049 215.051 351.716 217.446 349.399L217.098 349.04C219.492 346.723 221.902 344.421 224.328 342.135L224.671 342.499C227.092 340.218 229.53 337.952 231.983 335.702L231.645 335.333C234.1 333.082 236.571 330.846 239.058 328.625L239.391 328.998C241.876 326.78 244.376 324.577 246.893 322.39L246.565 322.013C249.077 319.829 251.605 317.662 254.148 315.511L254.471 315.892C257.011 313.743 259.567 311.611 262.137 309.494L261.82 309.108C264.392 306.99 266.98 304.888 269.582 302.803L269.895 303.193C272.493 301.111 275.107 299.045 277.735 296.996L277.428 296.602C280.052 294.556 282.691 292.526 285.344 290.513L285.647 290.911C288.298 288.9 290.964 286.905 293.645 284.927L293.348 284.524C296.03 282.545 298.727 280.582 301.438 278.637L301.73 279.043C304.432 277.103 307.148 275.181 309.878 273.275L309.592 272.865C312.322 270.96 315.065 269.072 317.822 267.202L318.103 267.615C320.858 265.746 323.627 263.894 326.409 262.059L326.134 261.641C328.917 259.806 331.713 257.988 334.523 256.188L334.793 256.609C337.591 254.816 340.403 253.04 343.228 251.282L342.964 250.857C345.791 249.098 348.63 247.356 351.483 245.632L351.742 246.06C354.593 244.337 357.457 242.631 360.333 240.944L360.081 240.513C362.952 238.828 365.837 237.161 368.734 235.512L368.981 235.947C371.87 234.302 374.772 232.676 377.687 231.067L377.445 230.629C380.361 229.019 383.29 227.428 386.23 225.854L386.466 226.295C389.405 224.723 392.356 223.168 395.319 221.632L395.089 221.188C398.04 219.658 401.004 218.146 403.979 216.653L404.203 217.1C407.176 215.608 410.16 214.134 413.155 212.678L412.937 212.229C415.934 210.772 418.944 209.335 421.964 207.915L422.177 208.368C425.19 206.952 428.215 205.555 431.252 204.176L431.045 203.721C434.072 202.346 437.11 200.99 440.159 199.653L440.36 200.111C443.407 198.775 446.465 197.457 449.534 196.159L449.339 195.698C452.41 194.399 455.492 193.118 458.584 191.857L458.773 192.32C461.852 191.064 464.941 189.827 468.04 188.609L467.857 188.144C470.952 186.927 474.058 185.73 477.174 184.552L477.351 185.02C480.464 183.842 483.588 182.684 486.722 181.545L486.552 181.075C489.688 179.936 492.833 178.816 495.989 177.715L496.154 178.187C499.288 177.094 502.432 176.02 505.585 174.965L505.426 174.491C508.582 173.435 511.746 172.4 514.92 171.383L515.073 171.859C518.245 170.844 521.427 169.847 524.617 168.871L524.471 168.393C527.657 167.418 530.853 166.462 534.057 165.526L534.197 166.006C537.384 165.075 540.58 164.164 543.784 163.273L543.65 162.791C546.857 161.899 550.072 161.027 553.296 160.174L553.424 160.658C556.646 159.806 559.877 158.973 563.116 158.161L562.995 157.676C566.221 156.867 569.457 156.078 572.7 155.308L572.816 155.795C576.047 155.029 579.286 154.282 582.534 153.555L582.425 153.067C585.674 152.34 588.932 151.633 592.198 150.946L592.301 151.435C595.564 150.749 598.836 150.082 602.115 149.436L602.018 148.946C605.277 148.303 608.543 147.681 611.816 147.079L611.907 147.571C615.174 146.97 618.449 146.389 621.73 145.829L621.646 145.336C624.93 144.775 628.222 144.234 631.52 143.714L631.598 144.208C634.893 143.688 638.195 143.188 641.504 142.709L641.432 142.214C644.715 141.739 648.005 141.284 651.301 140.849L651.366 141.345C654.661 140.91 657.962 140.495 661.27 140.101L661.21 139.605C664.52 139.211 667.837 138.837 671.16 138.483L671.213 138.98C674.526 138.628 677.845 138.296 681.17 137.985L681.124 137.487C684.427 137.178 687.735 136.889 691.05 136.62L691.091 137.118C694.404 136.85 697.723 136.602 701.048 136.374L701.014 135.875C704.341 135.648 707.674 135.44 711.013 135.254L711.041 135.753C714.363 135.567 717.692 135.402 721.026 135.257L721.004 134.758C724.318 134.614 727.638 134.49 730.963 134.387L730.978 134.887C734.301 134.784 737.629 134.702 740.963 134.64L740.954 134.14C744.29 134.078 747.631 134.036 750.977 134.016L750.98 134.516C752.652 134.505 754.325 134.5 756 134.5C757.674 134.5 759.348 134.505 761.02 134.516L761.023 134.016C764.369 134.036 767.71 134.078 771.046 134.14L771.036 134.64C774.37 134.702 777.699 134.784 781.022 134.887L781.037 134.387C784.362 134.49 787.682 134.614 790.996 134.758L790.974 135.257C794.308 135.402 797.636 135.567 800.959 135.753L800.987 135.254C804.326 135.44 807.659 135.648 810.986 135.875L810.952 136.374C814.277 136.602 817.596 136.85 820.909 137.118L820.949 136.62C824.264 136.889 827.573 137.178 830.875 137.487L830.829 137.985C834.155 138.296 837.474 138.628 840.787 138.98L840.839 138.483C844.162 138.837 847.479 139.21 850.789 139.605L850.73 140.101C854.037 140.495 857.339 140.91 860.633 141.344L860.698 140.849C863.995 141.284 867.284 141.739 870.567 142.214L870.495 142.709C873.804 143.188 877.106 143.688 880.401 144.207L880.479 143.714C883.777 144.234 887.069 144.775 890.353 145.336L890.269 145.829C893.551 146.389 896.825 146.97 900.092 147.571L900.183 147.079C903.456 147.681 906.723 148.303 909.981 148.945L909.884 149.436C913.164 150.082 916.435 150.749 919.699 151.435L919.801 150.946C923.067 151.633 926.325 152.34 929.574 153.067L929.465 153.555C932.713 154.282 935.952 155.028 939.183 155.795L939.299 155.308C942.542 156.078 945.778 156.867 949.005 157.676L948.883 158.161C952.122 158.973 955.353 159.805 958.575 160.657L958.703 160.174C961.927 161.026 965.143 161.899 968.349 162.791L968.215 163.273C971.42 164.164 974.615 165.075 977.802 166.006L977.942 165.526C981.147 166.462 984.342 167.417 987.528 168.393L987.382 168.871C990.573 169.847 993.754 170.843 996.926 171.859L997.079 171.383C1000.25 172.399 1003.42 173.435 1006.57 174.491L1006.41 174.965C1009.57 176.019 1012.71 177.093 1015.85 178.187L1016.01 177.715C1019.17 178.815 1022.31 179.936 1025.45 181.075L1025.28 181.545C1028.41 182.684 1031.54 183.842 1034.65 185.02L1034.83 184.552C1037.94 185.73 1041.05 186.927 1044.14 188.143L1043.96 188.609C1047.06 189.827 1050.15 191.064 1053.23 192.319L1053.42 191.856C1056.51 193.118 1059.59 194.399 1062.66 195.698L1062.47 196.158C1065.53 197.457 1068.59 198.775 1071.64 200.111L1071.84 199.653C1074.89 200.99 1077.93 202.346 1080.95 203.721L1080.75 204.176C1083.78 205.554 1086.81 206.952 1089.82 208.368L1090.04 207.915C1093.06 209.334 1096.07 210.772 1099.06 212.228L1098.84 212.678C1101.84 214.134 1104.82 215.607 1107.8 217.1L1108.02 216.653C1111 218.146 1113.96 219.658 1116.91 221.188L1116.68 221.632C1119.64 223.168 1122.59 224.722 1125.53 226.295L1125.77 225.854C1128.71 227.428 1131.64 229.019 1134.55 230.629L1134.31 231.067C1137.23 232.676 1140.13 234.302 1143.02 235.947L1143.27 235.512C1146.16 237.161 1149.05 238.828 1151.92 240.512L1151.67 240.944C1154.54 242.631 1157.41 244.337 1160.26 246.06L1160.52 245.632C1163.37 247.356 1166.21 249.098 1169.04 250.857L1168.77 251.282C1171.6 253.04 1174.41 254.816 1177.21 256.609L1177.48 256.188C1180.29 257.988 1183.08 259.806 1185.87 261.641L1185.59 262.059C1188.37 263.894 1191.14 265.746 1193.9 267.615L1194.18 267.202C1196.94 269.072 1199.68 270.96 1202.41 272.865L1202.12 273.275C1204.85 275.181 1207.57 277.103 1210.27 279.043L1210.56 278.637C1213.27 280.582 1215.97 282.545 1218.65 284.524L1218.36 284.927C1221.04 286.905 1223.7 288.9 1226.35 290.911L1226.66 290.513C1229.31 292.526 1231.95 294.556 1234.57 296.602L1234.26 296.996C1236.89 299.045 1239.51 301.111 1242.11 303.193L1242.42 302.803C1245.02 304.888 1247.61 306.99 1250.18 309.108L1249.86 309.494C1252.43 311.611 1254.99 313.744 1257.53 315.893L1257.85 315.511C1260.4 317.662 1262.92 319.829 1265.44 322.013L1265.11 322.39C1267.62 324.577 1270.12 326.78 1272.61 328.999L1272.94 328.626C1275.43 330.846 1277.9 333.082 1280.35 335.333L1280.02 335.702C1282.47 337.952 1284.91 340.218 1287.33 342.499L1287.67 342.135C1290.1 344.421 1292.51 346.723 1294.9 349.04L1294.55 349.399C1296.95 351.716 1299.33 354.049 1301.69 356.397L1302.04 356.043C1304.4 358.393 1306.75 360.757 1309.08 363.137L1308.72 363.487C1311.05 365.866 1313.36 368.259 1315.66 370.668L1316.02 370.323C1318.32 372.738 1320.6 375.167 1322.87 377.611L1322.5 377.951C1324.77 380.394 1327.02 382.851 1329.25 385.323L1329.62 384.988C1331.85 387.461 1334.06 389.95 1336.26 392.452L1335.88 392.782C1338.08 395.285 1340.26 397.802 1342.42 400.333L1342.8 400.009C1344.97 402.544 1347.12 405.093 1349.24 407.656L1348.86 407.976C1350.99 410.537 1353.1 413.113 1355.19 415.703L1355.58 415.389C1357.67 417.98 1359.75 420.586 1361.8 423.205L1361.41 423.514C1363.47 426.133 1365.51 428.767 1367.53 431.414L1367.92 431.111C1369.95 433.76 1371.95 436.423 1373.93 439.099L1373.53 439.397C1375.52 442.072 1377.48 444.759 1379.43 447.461L1379.83 447.168C1381.78 449.872 1383.71 452.589 1385.62 455.319L1385.21 455.605C1387.12 458.334 1389.01 461.076 1390.88 463.831L1391.29 463.55C1393.16 466.306 1395.02 469.076 1396.85 471.859L1396.43 472.134C1398.26 474.914 1400.08 477.707 1401.87 480.513L1402.29 480.244C1404.08 483.051 1405.86 485.871 1407.61 488.704L1407.19 488.967C1408.94 491.798 1410.67 494.64 1412.39 497.495L1412.82 497.238C1414.53 500.095 1416.23 502.965 1417.9 505.846L1417.47 506.097C1419.14 508.976 1420.79 511.866 1422.43 514.769L1422.86 514.524C1424.49 517.427 1426.11 520.342 1427.7 523.268L1427.26 523.507C1428.85 526.432 1430.42 529.368 1431.97 532.316L1432.41 532.084C1433.96 535.034 1435.49 537.995 1437 540.968L1436.56 541.194C1438.06 544.161 1439.55 547.139 1441.01 550.128L1441.46 549.908C1442.93 552.899 1444.37 555.901 1445.8 558.914L1445.34 559.128C1446.77 562.139 1448.17 565.161 1449.55 568.193L1450 567.986C1451.38 571.018 1452.74 574.062 1454.08 577.115L1453.62 577.316C1454.95 580.363 1456.27 583.42 1457.56 586.488L1458.02 586.294C1459.31 589.365 1460.58 592.445 1461.83 595.536L1461.36 595.724C1462.61 598.812 1463.84 601.911 1465.04 605.02L1465.51 604.84C1466.71 607.943 1467.89 611.056 1469.05 614.179L1468.58 614.353C1469.74 617.471 1470.87 620.6 1471.98 623.739L1472.45 623.572C1473.57 626.712 1474.66 629.863 1475.73 633.023L1475.25 633.183C1476.32 636.337 1477.37 639.501 1478.39 642.673L1478.86 642.52C1479.88 645.686 1480.88 648.86 1481.86 652.044L1481.38 652.191C1482.35 655.372 1483.3 658.563 1484.23 661.762L1484.71 661.623C1485.64 664.825 1486.55 668.036 1487.43 671.255L1486.95 671.388C1487.83 674.593 1488.69 677.807 1489.53 681.03L1490.01 680.904C1490.84 684.124 1491.66 687.353 1492.44 690.59L1491.96 690.708C1492.75 693.943 1493.51 697.185 1494.25 700.436L1494.74 700.325C1495.48 703.576 1496.2 706.835 1496.9 710.102L1496.41 710.206C1497.1 713.453 1497.77 716.707 1498.42 719.969L1498.91 719.872C1499.55 723.136 1500.17 726.408 1500.77 729.688L1500.28 729.778C1500.88 733.055 1501.46 736.34 1502.01 739.633L1502.5 739.55C1503.05 742.832 1503.58 746.121 1504.08 749.418L1503.59 749.493C1504.09 752.775 1504.57 756.064 1505.02 759.36L1505.52 759.292C1505.97 762.59 1506.4 765.896 1506.81 769.208L1506.32 769.269C1506.72 772.579 1507.11 775.896 1507.47 779.22L1507.97 779.166C1508.32 782.466 1508.66 785.772 1508.97 789.085L1508.47 789.132C1508.78 792.438 1509.07 795.752 1509.33 799.071L1509.83 799.032C1510.09 802.354 1510.33 805.682 1510.55 809.016L1510.05 809.048C1510.26 812.373 1510.46 815.704 1510.62 819.041L1511.12 819.016C1511.29 822.328 1511.43 825.646 1511.55 828.969L1511.05 828.987C1511.17 832.308 1511.27 835.635 1511.34 838.967L1511.84 838.956Z" stroke="white" stroke-dasharray="10 10"/>
<path opacity="0.45" d="M1246.11 839.127C1246.21 842.419 1246.29 845.72 1246.32 849.03L1245.82 849.035C1245.84 850.688 1245.85 852.343 1245.85 854C1245.85 855.657 1245.84 857.312 1245.82 858.964L1246.32 858.97C1246.29 862.279 1246.21 865.58 1246.11 868.873L1245.61 868.856C1245.5 872.148 1245.35 875.431 1245.17 878.704L1245.67 878.732C1245.49 882.041 1245.28 885.341 1245.02 888.632L1244.52 888.593C1244.27 891.88 1243.98 895.158 1243.66 898.426L1244.16 898.475C1243.83 901.766 1243.47 905.047 1243.07 908.318L1242.57 908.258C1242.17 911.534 1241.74 914.801 1241.27 918.057L1241.76 918.128C1241.29 921.395 1240.79 924.651 1240.25 927.896L1239.75 927.813C1239.21 931.072 1238.63 934.32 1238.01 937.556L1238.51 937.649C1237.89 940.889 1237.24 944.117 1236.56 947.334L1236.07 947.229C1235.38 950.461 1234.65 953.68 1233.9 956.887L1234.38 957.003C1233.62 960.215 1232.83 963.415 1232 966.601L1231.52 966.476C1230.69 969.668 1229.82 972.848 1228.92 976.015L1229.41 976.151C1228.5 979.329 1227.57 982.493 1226.6 985.643L1226.12 985.496C1225.15 988.645 1224.15 991.781 1223.11 994.903L1223.58 995.06C1222.54 998.196 1221.47 1001.32 1220.36 1004.42L1219.89 1004.25C1218.78 1007.36 1217.64 1010.45 1216.46 1013.52L1216.93 1013.7C1215.75 1016.78 1214.54 1019.85 1213.29 1022.91L1212.83 1022.72C1211.59 1025.77 1210.31 1028.81 1209 1031.83L1209.46 1032.03C1208.15 1035.06 1206.8 1038.07 1205.43 1041.06L1204.97 1040.86C1203.6 1043.85 1202.19 1046.83 1200.75 1049.79L1201.2 1050.01C1199.75 1052.98 1198.28 1055.93 1196.77 1058.86L1196.33 1058.63C1194.82 1061.57 1193.29 1064.48 1191.72 1067.38L1192.16 1067.62C1190.59 1070.52 1188.99 1073.4 1187.36 1076.27L1186.92 1076.02C1185.29 1078.88 1183.63 1081.73 1181.94 1084.56L1182.37 1084.81C1180.68 1087.65 1178.95 1090.46 1177.2 1093.25L1176.78 1092.99C1175.02 1095.78 1173.24 1098.55 1171.43 1101.3L1171.85 1101.58C1170.04 1104.33 1168.19 1107.07 1166.32 1109.79L1165.91 1109.5C1164.04 1112.22 1162.15 1114.91 1160.22 1117.58L1160.62 1117.88C1158.7 1120.55 1156.74 1123.21 1154.76 1125.84L1154.36 1125.54C1152.37 1128.17 1150.36 1130.79 1148.33 1133.38L1148.72 1133.69C1146.68 1136.28 1144.62 1138.85 1142.52 1141.4L1142.14 1141.08C1140.05 1143.63 1137.93 1146.15 1135.78 1148.66L1136.16 1148.98C1134.02 1151.49 1131.85 1153.97 1129.65 1156.43L1129.28 1156.1C1127.08 1158.55 1124.86 1160.99 1122.61 1163.4L1122.98 1163.74C1120.73 1166.15 1118.46 1168.55 1116.16 1170.91L1115.8 1170.57C1113.51 1172.93 1111.19 1175.27 1108.85 1177.59L1109.2 1177.94C1106.85 1180.26 1104.48 1182.56 1102.09 1184.83L1101.74 1184.47C1099.35 1186.73 1096.94 1188.98 1094.51 1191.19L1094.84 1191.56C1092.4 1193.78 1089.94 1195.98 1087.46 1198.16L1087.13 1197.78C1084.65 1199.95 1082.15 1202.09 1079.62 1204.21L1079.94 1204.59C1077.42 1206.71 1074.87 1208.8 1072.29 1210.87L1071.98 1210.48C1069.42 1212.55 1066.83 1214.59 1064.22 1216.6L1064.52 1217C1061.91 1219.01 1059.28 1221 1056.63 1222.96L1056.33 1222.56C1053.68 1224.52 1051.01 1226.46 1048.32 1228.37L1048.61 1228.77C1045.92 1230.68 1043.22 1232.56 1040.49 1234.41L1040.21 1234C1037.48 1235.85 1034.74 1237.68 1031.97 1239.48L1032.24 1239.9C1029.48 1241.69 1026.7 1243.46 1023.9 1245.21L1023.64 1244.78C1020.84 1246.52 1018.02 1248.23 1015.19 1249.92L1015.45 1250.35C1012.61 1252.04 1009.76 1253.69 1006.89 1255.33L1006.64 1254.89C1003.78 1256.52 1000.9 1258.12 998.003 1259.69L998.242 1260.13C995.341 1261.7 992.422 1263.24 989.485 1264.76L989.255 1264.32C986.334 1265.83 983.396 1267.31 980.44 1268.76L980.66 1269.21C977.701 1270.67 974.725 1272.09 971.731 1273.49L971.519 1273.04C968.539 1274.43 965.541 1275.8 962.527 1277.13L962.729 1277.59C959.718 1278.93 956.689 1280.23 953.645 1281.51L953.451 1281.05C950.414 1282.33 947.361 1283.57 944.292 1284.79L944.476 1285.26C941.417 1286.47 938.343 1287.66 935.253 1288.81L935.078 1288.34C931.991 1289.5 928.889 1290.63 925.772 1291.72L925.938 1292.19C922.835 1293.29 919.717 1294.35 916.584 1295.38L916.428 1294.91C913.301 1295.94 910.16 1296.94 907.006 1297.91L907.153 1298.39C904.005 1299.36 900.842 1300.3 897.666 1301.21L897.529 1300.73C894.368 1301.64 891.194 1302.52 888.008 1303.36L888.136 1303.85C884.946 1304.7 881.743 1305.51 878.527 1306.3L878.408 1305.82C875.22 1306.6 872.019 1307.35 868.806 1308.07L868.916 1308.56C865.699 1309.28 862.471 1309.97 859.231 1310.63L859.131 1310.14C855.908 1310.8 852.674 1311.43 849.429 1312.02L849.519 1312.52C846.283 1313.11 843.035 1313.68 839.776 1314.21L839.695 1313.72C836.442 1314.25 833.177 1314.75 829.902 1315.23L829.974 1315.72C826.723 1316.19 823.462 1316.63 820.191 1317.03L820.129 1316.54C816.861 1316.95 813.583 1317.32 810.295 1317.67L810.348 1318.16C807.075 1318.51 803.793 1318.82 800.502 1319.1L800.459 1318.6C797.185 1318.89 793.902 1319.13 790.609 1319.35L790.642 1319.85C787.348 1320.07 784.046 1320.26 780.734 1320.42L780.711 1319.92C777.436 1320.07 774.154 1320.2 770.863 1320.29L770.877 1320.79C767.583 1320.88 764.281 1320.95 760.971 1320.98L760.966 1320.48C759.313 1320.49 757.657 1320.5 756 1320.5C754.343 1320.5 752.688 1320.49 751.035 1320.48L751.03 1320.98C747.72 1320.95 744.418 1320.88 741.124 1320.79L741.138 1320.29C737.847 1320.2 734.564 1320.07 731.29 1319.92L731.266 1320.42C727.955 1320.26 724.652 1320.07 721.358 1319.85L721.391 1319.35C718.099 1319.13 714.816 1318.89 711.541 1318.6L711.499 1319.1C708.207 1318.82 704.925 1318.51 701.653 1318.16L701.705 1317.67C698.417 1317.32 695.139 1316.95 691.871 1316.54L691.809 1317.03C688.538 1316.63 685.277 1316.19 682.027 1315.72L682.098 1315.23C678.823 1314.75 675.559 1314.25 672.305 1313.72L672.224 1314.21C668.965 1313.68 665.718 1313.11 662.481 1312.52L662.572 1312.02C659.326 1311.43 656.092 1310.8 652.87 1310.14L652.77 1310.63C649.529 1309.97 646.301 1309.28 643.085 1308.56L643.194 1308.07C639.981 1307.35 636.78 1306.6 633.592 1305.82L633.473 1306.3C630.257 1305.51 627.054 1304.7 623.864 1303.85L623.993 1303.36C620.806 1302.52 617.632 1301.64 614.472 1300.73L614.334 1301.21C611.158 1300.3 607.996 1299.36 604.847 1298.39L604.995 1297.91C601.84 1296.94 598.699 1295.94 595.573 1294.91L595.416 1295.38C592.283 1294.35 589.165 1293.29 586.062 1292.19L586.228 1291.72C583.111 1290.63 580.009 1289.5 576.922 1288.34L576.747 1288.81C573.657 1287.66 570.583 1286.47 567.524 1285.26L567.708 1284.79C564.639 1283.57 561.586 1282.33 558.549 1281.05L558.355 1281.51C555.311 1280.23 552.282 1278.93 549.271 1277.59L549.473 1277.13C546.459 1275.8 543.461 1274.43 540.481 1273.04L540.269 1273.49C537.275 1272.09 534.299 1270.67 531.339 1269.21L531.56 1268.76C528.604 1267.31 525.665 1265.83 522.745 1264.32L522.515 1264.76C519.578 1263.24 516.659 1261.7 513.758 1260.13L513.996 1259.69C511.098 1258.12 508.219 1256.52 505.358 1254.89L505.111 1255.33C502.24 1253.69 499.387 1252.04 496.554 1250.35L496.81 1249.92C493.975 1248.23 491.16 1246.52 488.364 1244.78L488.1 1245.21C485.299 1243.46 482.517 1241.69 479.756 1239.9L480.029 1239.48C477.263 1237.68 474.517 1235.85 471.791 1234L471.51 1234.41C468.782 1232.56 466.075 1230.68 463.389 1228.77L463.678 1228.37C460.986 1226.46 458.316 1224.52 455.667 1222.56L455.37 1222.96C452.717 1221 450.086 1219.01 447.478 1217L447.783 1216.6C445.173 1214.59 442.584 1212.55 440.019 1210.48L439.705 1210.87C437.133 1208.8 434.584 1206.71 432.058 1204.59L432.379 1204.21C429.854 1202.09 427.352 1199.94 424.873 1197.78L424.544 1198.15C422.058 1195.98 419.595 1193.78 417.157 1191.56L417.493 1191.19C415.057 1188.98 412.645 1186.73 410.257 1184.47L409.913 1184.83C407.518 1182.56 405.147 1180.26 402.801 1177.94L403.153 1177.59C400.809 1175.27 398.49 1172.93 396.197 1170.57L395.838 1170.91C393.539 1168.55 391.266 1166.15 389.019 1163.74L389.385 1163.4C387.138 1160.99 384.918 1158.55 382.723 1156.1L382.35 1156.43C380.153 1153.97 377.981 1151.49 375.837 1148.98L376.216 1148.66C374.072 1146.15 371.954 1143.63 369.863 1141.08L369.477 1141.4C367.384 1138.85 365.318 1136.28 363.28 1133.69L363.673 1133.38C361.635 1130.79 359.625 1128.17 357.643 1125.54L357.243 1125.84C355.259 1123.21 353.303 1120.55 351.375 1117.88L351.781 1117.58C349.855 1114.91 347.957 1112.22 346.088 1109.5L345.677 1109.79C343.806 1107.07 341.963 1104.33 340.151 1101.58L340.568 1101.3C338.758 1098.55 336.976 1095.78 335.225 1092.99L334.801 1093.25C333.048 1090.46 331.325 1087.65 329.631 1084.81L330.06 1084.56C328.369 1081.73 326.708 1078.88 325.077 1076.02L324.642 1076.27C323.011 1073.4 321.411 1070.52 319.841 1067.62L320.281 1067.38C318.713 1064.48 317.176 1061.57 315.67 1058.63L315.225 1058.86C313.72 1055.93 312.246 1052.98 310.803 1050.01L311.253 1049.79C309.812 1046.83 308.404 1043.85 307.027 1040.86L306.573 1041.06C305.196 1038.07 303.851 1035.06 302.539 1032.03L302.998 1031.83C301.689 1028.81 300.412 1025.77 299.169 1022.72L298.705 1022.91C297.461 1019.85 296.249 1016.78 295.07 1013.7L295.537 1013.52C294.363 1010.45 293.221 1007.36 292.114 1004.25L291.643 1004.42C290.534 1001.32 289.458 998.196 288.416 995.06L288.891 994.903C287.853 991.781 286.85 988.645 285.88 985.496L285.402 985.643C284.432 982.493 283.496 979.329 282.594 976.151L283.075 976.015C282.177 972.848 281.312 969.669 280.482 966.476L279.998 966.601C279.17 963.415 278.376 960.215 277.617 957.003L278.103 956.888C277.345 953.681 276.622 950.461 275.934 947.23L275.445 947.334C274.76 944.118 274.109 940.889 273.494 937.65L273.985 937.556C273.371 934.32 272.792 931.073 272.248 927.814L271.754 927.896C271.213 924.651 270.706 921.395 270.235 918.129L270.73 918.057C270.261 914.801 269.826 911.535 269.428 908.258L268.931 908.318C268.534 905.047 268.171 901.766 267.845 898.475L268.342 898.426C268.018 895.158 267.729 891.881 267.476 888.594L266.978 888.632C266.725 885.342 266.507 882.041 266.326 878.732L266.825 878.705C266.646 875.431 266.502 872.148 266.394 868.857L265.894 868.873C265.786 865.581 265.713 862.28 265.677 858.97L266.177 858.965C266.159 857.312 266.15 855.657 266.15 854C266.15 852.343 266.159 850.688 266.177 849.036L265.677 849.03C265.713 845.721 265.786 842.42 265.894 839.127L266.394 839.144C266.502 835.852 266.646 832.569 266.825 829.296L266.326 829.268C266.507 825.959 266.725 822.659 266.978 819.368L267.476 819.407C267.729 816.12 268.018 812.842 268.342 809.574L267.845 809.525C268.171 806.234 268.534 802.953 268.931 799.682L269.428 799.742C269.826 796.465 270.261 793.199 270.73 789.943L270.235 789.872C270.706 786.605 271.213 783.349 271.754 780.104L272.248 780.187C272.792 776.928 273.371 773.68 273.985 770.444L273.494 770.351C274.109 767.111 274.76 763.883 275.445 760.666L275.934 760.771C276.622 757.539 277.345 754.32 278.103 751.113L277.617 750.997C278.376 747.785 279.17 744.585 279.998 741.399L280.482 741.524C281.312 738.332 282.177 735.152 283.075 731.985L282.594 731.849C283.496 728.671 284.432 725.507 285.402 722.357L285.88 722.504C286.85 719.355 287.853 716.219 288.891 713.097L288.416 712.94C289.458 709.804 290.534 706.683 291.643 703.577L292.114 703.745C293.221 700.643 294.363 697.554 295.537 694.481L295.07 694.303C296.249 691.217 297.461 688.147 298.705 685.092L299.169 685.281C300.412 682.229 301.689 679.192 302.998 676.171L302.539 675.972C303.851 672.944 305.196 669.932 306.573 666.936L307.027 667.144C308.404 664.149 309.812 661.17 311.253 658.207L310.803 657.989C312.246 655.022 313.72 652.072 315.225 649.139L315.67 649.368C317.176 646.435 318.713 643.519 320.281 640.621L319.841 640.383C321.411 637.482 323.011 634.599 324.643 631.734L325.077 631.981C326.708 629.116 328.369 626.27 330.061 623.442L329.631 623.186C331.325 620.355 333.048 617.542 334.802 614.748L335.225 615.014C336.977 612.223 338.758 609.451 340.569 606.698L340.151 606.424C341.964 603.668 343.806 600.931 345.677 598.214L346.089 598.498C347.957 595.784 349.855 593.09 351.781 590.417L351.375 590.124C353.303 587.448 355.259 584.792 357.244 582.157L357.643 582.458C359.625 579.825 361.635 577.213 363.673 574.622L363.28 574.313C365.318 571.721 367.384 569.151 369.477 566.601L369.863 566.919C371.954 564.372 374.072 561.846 376.216 559.342L375.837 559.017C377.981 556.513 380.153 554.031 382.35 551.57L382.723 551.903C384.918 549.447 387.139 547.012 389.385 544.599L389.019 544.258C391.267 541.845 393.54 539.454 395.838 537.086L396.197 537.434C398.49 535.071 400.809 532.731 403.153 530.414L402.802 530.058C405.147 527.739 407.518 525.443 409.913 523.17L410.258 523.532C412.645 521.267 415.057 519.024 417.494 516.806L417.157 516.436C419.596 514.215 422.058 512.018 424.545 509.845L424.874 510.221C427.352 508.055 429.854 505.913 432.379 503.795L432.058 503.412C434.584 501.293 437.133 499.198 439.705 497.129L440.019 497.518C442.584 495.454 445.173 493.414 447.783 491.399L447.478 491.003C450.087 488.989 452.717 487.001 455.37 485.038L455.667 485.439C458.316 483.479 460.987 481.544 463.679 479.634L463.389 479.227C466.075 477.321 468.783 475.442 471.511 473.588L471.792 474.001C474.517 472.149 477.263 470.323 480.029 468.524L479.757 468.105C482.518 466.308 485.299 464.538 488.1 462.795L488.364 463.219C491.16 461.479 493.975 459.766 496.81 458.079L496.555 457.649C499.387 455.964 502.24 454.305 505.111 452.674L505.358 453.108C508.219 451.483 511.098 449.884 513.997 448.313L513.758 447.873C516.659 446.3 519.578 444.755 522.515 443.238L522.745 443.682C525.666 442.173 528.604 440.691 531.56 439.238L531.34 438.789C534.299 437.334 537.275 435.906 540.269 434.507L540.481 434.96C543.462 433.567 546.459 432.202 549.473 430.866L549.271 430.409C552.283 429.073 555.311 427.766 558.355 426.487L558.549 426.948C561.586 425.673 564.639 424.426 567.708 423.208L567.524 422.744C570.583 421.53 573.657 420.344 576.747 419.188L576.922 419.656C580.009 418.501 583.111 417.375 586.228 416.278L586.062 415.806C589.165 414.715 592.283 413.652 595.416 412.618L595.573 413.093C598.699 412.061 601.84 411.059 604.995 410.087L604.847 409.609C607.996 408.638 611.158 407.697 614.334 406.786L614.472 407.266C617.632 406.36 620.806 405.482 623.992 404.635L623.864 404.152C627.054 403.304 630.257 402.486 633.473 401.698L633.592 402.183C636.78 401.402 639.981 400.651 643.194 399.93L643.084 399.442C646.301 398.72 649.529 398.028 652.769 397.367L652.869 397.857C656.092 397.199 659.326 396.572 662.571 395.975L662.481 395.483C665.717 394.888 668.965 394.323 672.224 393.789L672.305 394.282C675.558 393.749 678.823 393.246 682.098 392.774L682.026 392.279C685.277 391.811 688.538 391.373 691.809 390.965L691.871 391.462C695.139 391.055 698.417 390.678 701.705 390.333L701.652 389.836C704.925 389.492 708.207 389.179 711.498 388.897L711.541 389.395C714.815 389.115 718.099 388.865 721.391 388.646L721.358 388.147C724.652 387.928 727.954 387.74 731.266 387.584L731.289 388.083C734.564 387.928 737.846 387.804 741.137 387.711L741.123 387.211C744.417 387.117 747.719 387.055 751.029 387.023L751.034 387.523C752.687 387.508 754.343 387.5 756 387.5C757.657 387.5 759.312 387.508 760.966 387.523L760.97 387.023C764.28 387.055 767.582 387.117 770.876 387.211L770.862 387.711C774.153 387.804 777.436 387.928 780.71 388.083L780.734 387.584C784.045 387.74 787.348 387.928 790.642 388.147L790.609 388.646C793.901 388.865 797.185 389.115 800.459 389.395L800.501 388.897C803.793 389.179 807.075 389.492 810.347 389.836L810.295 390.333C813.583 390.678 816.861 391.055 820.129 391.462L820.191 390.965C823.462 391.373 826.723 391.811 829.973 392.279L829.902 392.774C833.177 393.246 836.441 393.749 839.695 394.282L839.776 393.789C843.035 394.323 846.282 394.888 849.519 395.483L849.428 395.975C852.674 396.572 855.908 397.199 859.13 397.857L859.23 397.367C862.471 398.028 865.699 398.72 868.915 399.442L868.806 399.93C872.019 400.651 875.22 401.402 878.408 402.183L878.527 401.698C881.743 402.486 884.946 403.304 888.136 404.152L888.007 404.635C891.194 405.482 894.368 406.36 897.528 407.266L897.666 406.786C900.842 407.697 904.004 408.638 907.153 409.609L907.005 410.086C910.16 411.059 913.301 412.061 916.427 413.093L916.584 412.618C919.717 413.652 922.835 414.714 925.938 415.806L925.772 416.278C928.889 417.375 931.991 418.501 935.078 419.656L935.253 419.188C938.343 420.344 941.417 421.53 944.476 422.744L944.292 423.208C947.361 424.426 950.414 425.673 953.451 426.948L953.645 426.487C956.689 427.766 959.718 429.073 962.729 430.409L962.527 430.866C965.541 432.202 968.539 433.567 971.519 434.96L971.731 434.507C974.725 435.906 977.701 437.334 980.661 438.789L980.44 439.238C983.396 440.691 986.335 442.173 989.255 443.682L989.485 443.238C992.422 444.755 995.341 446.301 998.242 447.873L998.004 448.313C1000.9 449.884 1003.78 451.483 1006.64 453.108L1006.89 452.674C1009.76 454.305 1012.61 455.964 1015.45 457.65L1015.19 458.079C1018.02 459.766 1020.84 461.479 1023.64 463.22L1023.9 462.795C1026.7 464.539 1029.48 466.309 1032.24 468.105L1031.97 468.524C1034.74 470.324 1037.48 472.15 1040.21 474.001L1040.49 473.588C1043.22 475.442 1045.92 477.321 1048.61 479.227L1048.32 479.635C1051.01 481.544 1053.68 483.479 1056.33 485.44L1056.63 485.038C1059.28 487.001 1061.91 488.989 1064.52 491.003L1064.22 491.399C1066.83 493.414 1069.42 495.454 1071.98 497.518L1072.29 497.129C1074.87 499.199 1077.42 501.293 1079.94 503.412L1079.62 503.795C1082.15 505.913 1084.65 508.055 1087.13 510.221L1087.46 509.845C1089.94 512.018 1092.4 514.215 1094.84 516.436L1094.51 516.806C1096.94 519.025 1099.35 521.267 1101.74 523.533L1102.09 523.17C1104.48 525.443 1106.85 527.739 1109.2 530.058L1108.85 530.414C1111.19 532.731 1113.51 535.072 1115.8 537.435L1116.16 537.086C1118.46 539.455 1120.73 541.845 1122.98 544.259L1122.61 544.599C1124.86 547.012 1127.08 549.447 1129.28 551.904L1129.65 551.571C1131.85 554.031 1134.02 556.513 1136.16 559.017L1135.78 559.343C1137.93 561.846 1140.05 564.372 1142.14 566.919L1142.52 566.602C1144.62 569.151 1146.68 571.722 1148.72 574.313L1148.33 574.622C1150.36 577.214 1152.38 579.826 1154.36 582.458L1154.76 582.157C1156.74 584.793 1158.7 587.448 1160.62 590.124L1160.22 590.417C1162.15 593.091 1164.04 595.784 1165.91 598.498L1166.32 598.214C1168.19 600.931 1170.04 603.668 1171.85 606.424L1171.43 606.699C1173.24 609.451 1175.02 612.223 1176.78 615.014L1177.2 614.749C1178.95 617.542 1180.68 620.355 1182.37 623.186L1181.94 623.442C1183.63 626.27 1185.29 629.117 1186.92 631.981L1187.36 631.734C1188.99 634.599 1190.59 637.482 1192.16 640.384L1191.72 640.621C1193.29 643.519 1194.82 646.435 1196.33 649.368L1196.77 649.139C1198.28 652.072 1199.75 655.022 1201.2 657.989L1200.75 658.208C1202.19 661.17 1203.6 664.149 1204.97 667.144L1205.43 666.936C1206.8 669.932 1208.15 672.944 1209.46 675.972L1209 676.171C1210.31 679.192 1211.59 682.229 1212.83 685.281L1213.29 685.092C1214.54 688.147 1215.75 691.217 1216.93 694.303L1216.46 694.481C1217.64 697.554 1218.78 700.642 1219.89 703.745L1220.36 703.577C1221.47 706.683 1222.54 709.804 1223.58 712.94L1223.11 713.097C1224.15 716.219 1225.15 719.355 1226.12 722.504L1226.6 722.357C1227.57 725.507 1228.5 728.671 1229.41 731.849L1228.92 731.985C1229.82 735.152 1230.69 738.331 1231.52 741.524L1232 741.399C1232.83 744.585 1233.62 747.785 1234.38 750.997L1233.9 751.112C1234.65 754.319 1235.38 757.539 1236.07 760.77L1236.56 760.666C1237.24 763.882 1237.89 767.111 1238.51 770.35L1238.01 770.444C1238.63 773.68 1239.21 776.927 1239.75 780.186L1240.25 780.104C1240.79 783.349 1241.29 786.605 1241.76 789.871L1241.27 789.943C1241.74 793.199 1242.17 796.465 1242.57 799.742L1243.07 799.682C1243.47 802.953 1243.83 806.234 1244.16 809.525L1243.66 809.574C1243.98 812.842 1244.27 816.119 1244.52 819.406L1245.02 819.368C1245.28 822.658 1245.49 825.959 1245.67 829.268L1245.17 829.295C1245.35 832.569 1245.5 835.852 1245.61 839.143L1246.11 839.127Z" stroke="white" stroke-dasharray="10 10"/>
</g>
<defs>
<linearGradient id="paint0_linear_120_1596" x1="0" y1="0" x2="1534.42" y2="814.786" gradientUnits="userSpaceOnUse">
<stop stop-color="#7622FF"/>
<stop offset="1" stop-color="#E85077"/>
</linearGradient>
</defs>
</svg>
