<svg width="99" height="42" viewBox="0 0 99 42" fill="none" xmlns="http://www.w3.org/2000/svg">
<rect x="0.25" y="0.735352" width="98" height="40.5297" rx="5" fill="white"/>
<g clip-path="url(#clip0_100_3440)">
<path d="M25.4816 17.0454C24.6021 16.3582 23.0812 16.3485 21.2071 17.689L20.2433 18.3761L17.9529 20.0161L16.2602 18.1608C16.0563 17.9447 15.7757 17.8173 15.4787 17.8061C15.1818 17.795 14.8924 17.901 14.6729 18.1013C14.4534 18.3015 14.3214 18.5801 14.3053 18.8768C14.2892 19.1735 14.3904 19.4646 14.587 19.6874L16.9577 22.2848C17.1446 22.4894 17.4 22.6184 17.6756 22.6474C17.9512 22.6764 18.2279 22.6034 18.4533 22.4423C18.4533 22.4423 23.0623 18.7151 23.0875 18.6962C23.6911 18.1809 24.2711 17.9638 25.0762 18.1557C25.7284 18.3114 26.2621 18.8485 26.2718 19.3833C26.4282 18.4162 26.127 17.5504 25.4816 17.0454Z" fill="#E53E6A"/>
<path d="M25.1287 18.9826C24.957 18.9253 24.307 18.7238 23.5117 19.3977L21.8511 20.7388L22.887 20.35C22.9834 20.314 23.0884 20.3072 23.1887 20.3303C23.2891 20.3534 23.3804 20.4055 23.4514 20.4801C23.5224 20.5547 23.5699 20.6485 23.5881 20.7499C23.6062 20.8512 23.5942 20.9557 23.5535 21.0503C23.0641 22.1784 22.2267 23.1204 21.1637 23.7385C20.1006 24.3567 18.8677 24.6186 17.6452 24.486C14.9957 24.2048 12.8467 22.0695 12.549 19.4212C12.4105 18.2399 12.6418 17.0448 13.2109 16.0004C13.7801 14.9561 14.6591 14.114 15.7269 13.5901C16.7946 13.0662 17.9986 12.8863 19.1729 13.0753C20.3471 13.2642 21.4339 13.8126 22.2834 14.645C22.3884 14.7522 22.5136 14.8374 22.6518 14.8958C22.79 14.9542 22.9384 14.9846 23.0884 14.9852C23.2384 14.9858 23.387 14.9566 23.5257 14.8993C23.6643 14.842 23.7902 14.7577 23.896 14.6514C24.0019 14.5451 24.0855 14.4188 24.1422 14.2799C24.1988 14.141 24.2273 13.9922 24.2261 13.8422C24.2248 13.6922 24.1937 13.5439 24.1347 13.406C24.0756 13.2681 23.9898 13.1433 23.8822 13.0388C23.0586 12.2265 22.0685 11.6027 20.9804 11.2103C19.8922 10.8179 18.7318 10.6663 17.5794 10.7661C13.6644 11.0959 10.5202 14.3077 10.2671 18.2302C9.96646 22.8924 13.6736 26.7822 18.2728 26.7822C19.7024 26.7815 21.1059 26.399 22.3381 25.6742C23.5703 24.9493 24.5865 23.9085 25.2816 22.6593C25.4247 22.4162 25.5491 22.1626 25.6538 21.9006C26.1354 20.6174 26.1165 19.3118 25.1287 18.9826Z" fill="#E53E6A"/>
<path d="M60.8718 12.5283C60.7002 12.5283 60.5356 12.5965 60.4142 12.7178C60.2929 12.8392 60.2247 13.0038 60.2247 13.1754V19.0086H52.1382V13.1754C52.1382 13.0038 52.0701 12.8392 51.9487 12.7178C51.8274 12.5965 51.6628 12.5283 51.4912 12.5283C51.3196 12.5283 51.155 12.5965 51.0336 12.7178C50.9123 12.8392 50.8441 13.0038 50.8441 13.1754V26.1354C50.8441 26.307 50.9123 26.4716 51.0336 26.5929C51.155 26.7143 51.3196 26.7824 51.4912 26.7824C51.6628 26.7824 51.8274 26.7143 51.9487 26.5929C52.0701 26.4716 52.1382 26.307 52.1382 26.1354V20.3027H60.2247V26.1354C60.2247 26.307 60.2929 26.4716 60.4142 26.5929C60.5356 26.7143 60.7002 26.7824 60.8718 26.7824C61.0434 26.7824 61.208 26.7143 61.3293 26.5929C61.4506 26.4716 61.5188 26.307 61.5188 26.1354V13.1754C61.5188 13.0038 61.4506 12.8392 61.3293 12.7178C61.208 12.5965 61.0434 12.5283 60.8718 12.5283Z" fill="black"/>
<path d="M43.0431 15.1826C42.7427 15.1826 42.4546 15.3019 42.2422 15.5144C42.0298 15.7268 41.9105 16.0149 41.9105 16.3153V28.2257C41.9105 28.3272 41.8906 28.4278 41.8518 28.5216C41.8129 28.6154 41.756 28.7006 41.6842 28.7724C41.6124 28.8442 41.5272 28.9012 41.4333 28.94C41.3395 28.9788 41.239 28.9988 41.1374 28.9987H40.6702C40.3698 28.9987 40.0817 29.118 39.8693 29.3304C39.6569 29.5428 39.5375 29.8309 39.5375 30.1313C39.5375 30.4317 39.6569 30.7198 39.8693 30.9322C40.0817 31.1446 40.3698 31.264 40.6702 31.264H41.1374C41.5364 31.2643 41.9316 31.186 42.3004 31.0335C42.6691 30.881 43.0041 30.6572 43.2863 30.3751C43.5684 30.0929 43.7922 29.7579 43.9447 29.3892C44.0972 29.0204 44.1755 28.6253 44.1752 28.2262V16.3158C44.1754 16.167 44.1463 16.0197 44.0895 15.8822C44.0327 15.7446 43.9493 15.6197 43.8442 15.5144C43.739 15.4092 43.6141 15.3257 43.4767 15.2687C43.3392 15.2118 43.1919 15.1825 43.0431 15.1826Z" fill="#E53E6A"/>
<path d="M43.0428 13.6313C43.842 13.6313 44.4898 12.9835 44.4898 12.1843C44.4898 11.3851 43.842 10.7373 43.0428 10.7373C42.2437 10.7373 41.5958 11.3851 41.5958 12.1843C41.5958 12.9835 42.2437 13.6313 43.0428 13.6313Z" fill="#E53E6A"/>
<path d="M47.4533 15.1826C47.1529 15.1826 46.8648 15.3019 46.6524 15.5144C46.44 15.7268 46.3207 16.0149 46.3207 16.3153V25.6489C46.3207 25.9493 46.44 26.2374 46.6524 26.4498C46.8648 26.6622 47.1529 26.7815 47.4533 26.7815C47.7537 26.7815 48.0418 26.6622 48.2542 26.4498C48.4666 26.2374 48.5859 25.9493 48.5859 25.6489V16.3153C48.586 16.1665 48.5568 16.0192 48.4999 15.8817C48.443 15.7443 48.3596 15.6194 48.2544 15.5142C48.1492 15.409 48.0243 15.3256 47.8868 15.2687C47.7494 15.2118 47.6021 15.1825 47.4533 15.1826Z" fill="#E53E6A"/>
<path d="M47.4531 10.7373C47.0693 10.7373 46.7013 10.8898 46.4299 11.1611C46.1586 11.4325 46.0061 11.8005 46.0061 12.1843C46.0061 12.5681 46.1586 12.9361 46.4299 13.2075C46.7013 13.4789 47.0693 13.6313 47.4531 13.6313C47.8369 13.6313 48.2049 13.4789 48.4763 13.2075C48.7477 12.9361 48.9001 12.5681 48.9001 12.1843C48.9001 11.8005 48.7477 11.4325 48.4763 11.1611C48.2049 10.8898 47.8369 10.7373 47.4531 10.7373V10.7373Z" fill="#E53E6A"/>
<path d="M88.2132 20.3222C87.92 17.6658 85.7778 15.5208 83.1243 15.2208C82.1527 15.1067 81.1681 15.2407 80.2623 15.6102C79.3565 15.9797 78.5591 16.5726 77.9444 17.3337V13.1754C77.9444 13.0904 77.9277 13.0063 77.8952 12.9278C77.8627 12.8493 77.815 12.7779 77.7549 12.7178C77.6948 12.6578 77.6235 12.6101 77.545 12.5776C77.4665 12.5451 77.3824 12.5283 77.2974 12.5283C77.2124 12.5283 77.1283 12.5451 77.0498 12.5776C76.9713 12.6101 76.8999 12.6578 76.8398 12.7178C76.7798 12.7779 76.7321 12.8493 76.6996 12.9278C76.6671 13.0063 76.6503 13.0904 76.6503 13.1754V20.9824C76.6509 21.7716 76.8125 22.5523 77.1253 23.2769C77.438 24.0014 77.8954 24.6545 78.4693 25.1962C79.0432 25.7378 79.7216 26.1567 80.463 26.4271C81.2043 26.6975 81.9931 26.8138 82.781 26.7688C83.5689 26.7238 84.3393 26.5185 85.0451 26.1655C85.7509 25.8124 86.3772 25.3191 86.8857 24.7156C87.3942 24.1121 87.7742 23.4112 88.0025 22.6558C88.2307 21.9004 88.3024 21.1063 88.2132 20.3222ZM86.9179 21.5699C86.8083 22.4041 86.4675 23.191 85.9339 23.8414C85.4003 24.4919 84.6953 24.9801 83.8986 25.2506C83.102 25.5212 82.2455 25.5634 81.4261 25.3724C80.6067 25.1814 79.8572 24.7649 79.2623 24.1699C78.6673 23.575 78.2508 22.8255 78.0598 22.0061C77.8688 21.1867 77.911 20.3302 78.1816 19.5336C78.4521 18.7369 78.9403 18.0319 79.5908 17.4983C80.2413 16.9647 81.0281 16.6239 81.8623 16.5143C82.547 16.4268 83.2427 16.4973 83.8959 16.7204C84.5492 16.9435 85.1427 17.3133 85.6308 17.8014C86.1189 18.2895 86.4887 18.883 86.7118 19.5363C86.9349 20.1895 87.0054 20.8852 86.9179 21.5699Z" fill="black"/>
<path d="M73.8926 15.183C73.7209 15.183 73.5564 15.2511 73.435 15.3725C73.3137 15.4938 73.2455 15.6584 73.2455 15.83V21.204C73.2455 23.4435 71.5277 25.3732 69.2916 25.4832C68.728 25.511 68.1646 25.4241 67.6356 25.2277C67.1066 25.0314 66.623 24.7297 66.214 24.3409C65.8051 23.952 65.4794 23.4842 65.2566 22.9658C65.0338 22.4474 64.9186 21.8891 64.918 21.3248V15.8277C64.918 15.6561 64.8498 15.4915 64.7284 15.3702C64.6071 15.2488 64.4425 15.1807 64.2709 15.1807C64.0993 15.1807 63.9347 15.2488 63.8134 15.3702C63.692 15.4915 63.6238 15.6561 63.6238 15.8277V21.3248C63.6234 22.4427 63.9663 23.5337 64.6063 24.4502C65.2463 25.3667 66.1525 26.0644 67.2021 26.449C68.2517 26.8335 69.3942 26.8863 70.4748 26.6002C71.5554 26.3141 72.522 25.7029 73.2438 24.8493V26.1354C73.2438 26.2203 73.2605 26.3045 73.293 26.383C73.3256 26.4615 73.3732 26.5328 73.4333 26.5929C73.4934 26.653 73.5647 26.7007 73.6432 26.7332C73.7217 26.7657 73.8059 26.7824 73.8908 26.7824C73.9758 26.7824 74.06 26.7657 74.1385 26.7332C74.217 26.7007 74.2883 26.653 74.3484 26.5929C74.4085 26.5328 74.4561 26.4615 74.4886 26.383C74.5212 26.3045 74.5379 26.2203 74.5379 26.1354V15.8283C74.5376 15.6572 74.4695 15.4933 74.3485 15.3723C74.2276 15.2513 74.0636 15.1833 73.8926 15.183Z" fill="black"/>
<path d="M39.5378 20.983C39.5426 19.6673 39.1015 18.3889 38.2866 17.356C37.4716 16.3232 36.3308 15.5968 35.0501 15.2954C33.7695 14.994 32.4245 15.1354 31.2344 15.6964C30.0444 16.2573 29.0795 17.2049 28.497 18.3846C27.9145 19.5643 27.7488 20.9065 28.0269 22.1924C28.3051 23.4783 29.0106 24.6321 30.0285 25.4657C31.0464 26.2992 32.3167 26.7634 33.6322 26.7824C34.9477 26.8015 36.2309 26.3744 37.2725 25.5708V25.6503C37.2725 25.9507 37.3918 26.2388 37.6043 26.4512C37.8167 26.6636 38.1048 26.783 38.4051 26.783C38.7055 26.783 38.9936 26.6636 39.206 26.4512C39.4184 26.2388 39.5378 25.9507 39.5378 25.6503V20.983ZM33.7378 24.5177C33.0386 24.5177 32.3552 24.3104 31.7739 23.922C31.1927 23.5336 30.7396 22.9815 30.4721 22.3356C30.2045 21.6898 30.1345 20.979 30.2709 20.2934C30.4073 19.6077 30.744 18.9778 31.2383 18.4835C31.7326 17.9892 32.3625 17.6525 33.0482 17.5161C33.7338 17.3797 34.4446 17.4497 35.0904 17.7173C35.7363 17.9848 36.2884 18.4379 36.6768 19.0191C37.0652 19.6004 37.2725 20.2838 37.2725 20.983C37.2713 21.9201 36.8985 22.8184 36.2359 23.4811C35.5732 24.1437 34.6749 24.5165 33.7378 24.5177Z" fill="#E53E6A"/>
</g>
<defs>
<clipPath id="clip0_100_3440">
<rect width="78" height="20.5283" fill="white" transform="translate(10.25 10.7363)"/>
</clipPath>
</defs>
</svg>
