<svg width="79" height="22" viewBox="0 0 79 22" fill="none" xmlns="http://www.w3.org/2000/svg">
<g clip-path="url(#clip0_99_3410)">
<path d="M15.4816 7.04536C14.6021 6.35822 13.0812 6.34848 11.2071 7.68898L10.2433 8.37611L7.95288 10.0161L6.26023 8.16081C6.05634 7.94465 5.77568 7.81727 5.47874 7.80613C5.18181 7.79499 4.89239 7.90099 4.67288 8.10126C4.45338 8.30154 4.32136 8.58006 4.30531 8.87676C4.28925 9.17347 4.39043 9.46461 4.58705 9.6874L6.95767 12.2848C7.1446 12.4894 7.40002 12.6184 7.67562 12.6474C7.95123 12.6764 8.22791 12.6034 8.45335 12.4423C8.45335 12.4423 13.0623 8.7151 13.0875 8.69621C13.6911 8.18085 14.2711 7.96383 15.0762 8.15566C15.7284 8.31141 16.2621 8.84852 16.2718 9.38335C16.4282 8.4162 16.127 7.5504 15.4816 7.04536Z" fill="#E53E6A"/>
<path d="M15.1287 8.98258C14.957 8.92532 14.307 8.72376 13.5117 9.39772L11.8511 10.7388L12.887 10.35C12.9834 10.314 13.0884 10.3072 13.1887 10.3303C13.2891 10.3534 13.3804 10.4055 13.4514 10.4801C13.5224 10.5547 13.5699 10.6485 13.5881 10.7499C13.6062 10.8512 13.5942 10.9557 13.5535 11.0503C13.0641 12.1784 12.2267 13.1204 11.1637 13.7385C10.1006 14.3567 8.86775 14.6186 7.64523 14.486C4.99574 14.2048 2.84671 12.0695 2.54895 9.4212C2.4105 8.23993 2.64178 7.04478 3.21094 6.00045C3.7801 4.95611 4.65912 4.11398 5.72688 3.59008C6.79464 3.06619 7.99859 2.88632 9.17285 3.07525C10.3471 3.26419 11.4339 3.81263 12.2834 4.64502C12.3884 4.75217 12.5136 4.83742 12.6518 4.89581C12.79 4.9542 12.9384 4.98457 13.0884 4.98517C13.2384 4.98576 13.387 4.95657 13.5257 4.89927C13.6643 4.84198 13.7902 4.75773 13.896 4.6514C14.0019 4.54508 14.0855 4.41881 14.1422 4.2799C14.1988 4.14099 14.2273 3.99222 14.2261 3.84222C14.2248 3.69221 14.1937 3.54395 14.1347 3.40604C14.0756 3.26813 13.9898 3.14331 13.8822 3.03883C13.0586 2.22653 12.0685 1.60265 10.9804 1.21027C9.8922 0.817887 8.73183 0.666348 7.57938 0.766116C3.66441 1.09594 0.520177 4.30774 0.267081 8.23016C-0.0335427 12.8924 3.67357 16.7822 8.27282 16.7822C9.7024 16.7815 11.1059 16.399 12.3381 15.6742C13.5703 14.9493 14.5865 13.9085 15.2816 12.6593C15.4247 12.4162 15.5491 12.1626 15.6538 11.9006C16.1354 10.6174 16.1165 9.31183 15.1287 8.98258Z" fill="#E53E6A"/>
<path d="M50.8718 2.52832C50.7002 2.52832 50.5356 2.59649 50.4142 2.71784C50.2929 2.83919 50.2247 3.00377 50.2247 3.17538V9.00861H42.1382V3.17538C42.1382 3.00377 42.0701 2.83919 41.9487 2.71784C41.8274 2.59649 41.6628 2.52832 41.4912 2.52832C41.3196 2.52832 41.155 2.59649 41.0336 2.71784C40.9123 2.83919 40.8441 3.00377 40.8441 3.17538V16.1354C40.8441 16.307 40.9123 16.4716 41.0336 16.5929C41.155 16.7143 41.3196 16.7824 41.4912 16.7824C41.6628 16.7824 41.8274 16.7143 41.9487 16.5929C42.0701 16.4716 42.1382 16.307 42.1382 16.1354V10.3027H50.2247V16.1354C50.2247 16.307 50.2929 16.4716 50.4142 16.5929C50.5356 16.7143 50.7002 16.7824 50.8718 16.7824C51.0434 16.7824 51.208 16.7143 51.3293 16.5929C51.4506 16.4716 51.5188 16.307 51.5188 16.1354V3.17538C51.5188 3.00377 51.4506 2.83919 51.3293 2.71784C51.208 2.59649 51.0434 2.52832 50.8718 2.52832V2.52832Z" fill="black"/>
<path d="M33.0431 5.18262C32.7427 5.18262 32.4546 5.30195 32.2422 5.51436C32.0298 5.72677 31.9105 6.01486 31.9105 6.31525V18.2257C31.9105 18.3272 31.8906 18.4278 31.8518 18.5216C31.8129 18.6154 31.756 18.7006 31.6842 18.7724C31.6124 18.8442 31.5272 18.9012 31.4333 18.94C31.3395 18.9788 31.239 18.9988 31.1374 18.9987H30.6702C30.3698 18.9987 30.0817 19.118 29.8693 19.3304C29.6569 19.5428 29.5375 19.8309 29.5375 20.1313V20.1313C29.5375 20.4317 29.6569 20.7198 29.8693 20.9322C30.0817 21.1446 30.3698 21.264 30.6702 21.264H31.1374C31.5364 21.2643 31.9316 21.186 32.3004 21.0335C32.6691 20.881 33.0041 20.6572 33.2863 20.3751C33.5684 20.0929 33.7922 19.7579 33.9447 19.3892C34.0972 19.0204 34.1755 18.6253 34.1752 18.2262V6.31582C34.1754 6.16704 34.1463 6.01968 34.0895 5.88216C34.0327 5.74465 33.9493 5.61969 33.8442 5.51443C33.739 5.40917 33.6141 5.32568 33.4767 5.26875C33.3392 5.21181 33.1919 5.18254 33.0431 5.18262V5.18262Z" fill="#E53E6A"/>
<path d="M33.0428 3.6313C33.842 3.6313 34.4898 2.98346 34.4898 2.1843C34.4898 1.38515 33.842 0.737305 33.0428 0.737305C32.2437 0.737305 31.5958 1.38515 31.5958 2.1843C31.5958 2.98346 32.2437 3.6313 33.0428 3.6313Z" fill="#E53E6A"/>
<path d="M37.4533 5.18262C37.1529 5.18262 36.8648 5.30195 36.6524 5.51436C36.44 5.72677 36.3207 6.01486 36.3207 6.31525V15.6489C36.3207 15.9493 36.44 16.2374 36.6524 16.4498C36.8648 16.6622 37.1529 16.7815 37.4533 16.7815V16.7815C37.7537 16.7815 38.0418 16.6622 38.2542 16.4498C38.4666 16.2374 38.5859 15.9493 38.5859 15.6489V6.31525C38.586 6.16649 38.5568 6.01917 38.4999 5.88172C38.443 5.74427 38.3596 5.61938 38.2544 5.51419C38.1492 5.409 38.0243 5.32557 37.8868 5.26868C37.7494 5.21179 37.6021 5.18254 37.4533 5.18262Z" fill="#E53E6A"/>
<path d="M37.4531 0.737305C37.0693 0.737305 36.7013 0.889756 36.4299 1.16112C36.1586 1.43249 36.0061 1.80054 36.0061 2.1843C36.0061 2.56807 36.1586 2.93612 36.4299 3.20749C36.7013 3.47885 37.0693 3.6313 37.4531 3.6313C37.8369 3.6313 38.2049 3.47885 38.4763 3.20749C38.7477 2.93612 38.9001 2.56807 38.9001 2.1843C38.9001 1.80054 38.7477 1.43249 38.4763 1.16112C38.2049 0.889756 37.8369 0.737305 37.4531 0.737305V0.737305Z" fill="#E53E6A"/>
<path d="M78.2132 10.3222C77.92 7.66583 75.7778 5.52081 73.1243 5.22076C72.1527 5.10671 71.1681 5.24068 70.2623 5.61017C69.3565 5.97966 68.5591 6.57262 67.9444 7.33371V3.17538C67.9444 3.0904 67.9277 3.00626 67.8952 2.92776C67.8627 2.84925 67.815 2.77792 67.7549 2.71784C67.6948 2.65775 67.6235 2.61009 67.545 2.57757C67.4665 2.54506 67.3824 2.52832 67.2974 2.52832C67.2124 2.52832 67.1283 2.54506 67.0498 2.57757C66.9713 2.61009 66.8999 2.65775 66.8398 2.71784C66.7798 2.77792 66.7321 2.84925 66.6996 2.92776C66.6671 3.00626 66.6503 3.0904 66.6503 3.17538V10.9824C66.6509 11.7716 66.8125 12.5523 67.1253 13.2769C67.438 14.0014 67.8954 14.6545 68.4693 15.1962C69.0432 15.7378 69.7216 16.1567 70.463 16.4271C71.2043 16.6975 71.9931 16.8138 72.781 16.7688C73.5689 16.7238 74.3393 16.5185 75.0451 16.1655C75.7509 15.8124 76.3772 15.3191 76.8857 14.7156C77.3942 14.1121 77.7742 13.4112 78.0025 12.6558C78.2307 11.9004 78.3024 11.1063 78.2132 10.3222V10.3222ZM76.9179 11.5699C76.8083 12.4041 76.4675 13.191 75.9339 13.8414C75.4003 14.4919 74.6953 14.9801 73.8986 15.2506C73.102 15.5212 72.2455 15.5634 71.4261 15.3724C70.6067 15.1814 69.8572 14.7649 69.2623 14.1699C68.6673 13.575 68.2508 12.8255 68.0598 12.0061C67.8688 11.1867 67.911 10.3302 68.1816 9.53359C68.4521 8.73694 68.9403 8.03192 69.5908 7.49833C70.2413 6.96473 71.0281 6.62387 71.8623 6.5143C72.547 6.42677 73.2427 6.49727 73.8959 6.72039C74.5492 6.94351 75.1427 7.31331 75.6308 7.80143C76.1189 8.28955 76.4887 8.883 76.7118 9.53626C76.9349 10.1895 77.0054 10.8852 76.9179 11.5699V11.5699Z" fill="black"/>
<path d="M63.8926 5.18295C63.7209 5.18295 63.5564 5.25113 63.435 5.37247C63.3137 5.49382 63.2455 5.6584 63.2455 5.83001V11.204C63.2455 13.4435 61.5277 15.3732 59.2916 15.4832C58.728 15.511 58.1646 15.4241 57.6356 15.2277C57.1066 15.0314 56.623 14.7297 56.214 14.3409C55.8051 13.952 55.4794 13.4842 55.2566 12.9658C55.0338 12.4474 54.9186 11.8891 54.918 11.3248V5.82772C54.918 5.65611 54.8498 5.49153 54.7284 5.37018C54.6071 5.24884 54.4425 5.18066 54.2709 5.18066C54.0993 5.18066 53.9347 5.24884 53.8134 5.37018C53.692 5.49153 53.6238 5.65611 53.6238 5.82772V11.3248C53.6234 12.4427 53.9663 13.5337 54.6063 14.4502C55.2463 15.3667 56.1525 16.0644 57.2021 16.449C58.2517 16.8335 59.3942 16.8863 60.4748 16.6002C61.5554 16.3141 62.522 15.7029 63.2438 14.8493V16.1354C63.2438 16.2203 63.2605 16.3045 63.293 16.383C63.3256 16.4615 63.3732 16.5328 63.4333 16.5929C63.4934 16.653 63.5647 16.7007 63.6432 16.7332C63.7217 16.7657 63.8059 16.7824 63.8908 16.7824C63.9758 16.7824 64.06 16.7657 64.1385 16.7332C64.217 16.7007 64.2883 16.653 64.3484 16.5929C64.4085 16.5328 64.4561 16.4615 64.4886 16.383C64.5212 16.3045 64.5379 16.2203 64.5379 16.1354V5.82829C64.5376 5.65723 64.4695 5.49326 64.3485 5.3723C64.2276 5.25135 64.0636 5.18326 63.8926 5.18295V5.18295Z" fill="black"/>
<path d="M29.5378 10.983C29.5425 9.66731 29.1015 8.38886 28.2866 7.356C27.4716 6.32315 26.3308 5.59682 25.0501 5.29543C23.7695 4.99404 22.4245 5.13536 21.2344 5.69635C20.0444 6.25735 19.0795 7.20493 18.497 8.38461C17.9145 9.56429 17.7488 10.9065 18.0269 12.1924C18.3051 13.4783 19.0106 14.6321 20.0285 15.4657C21.0464 16.2992 22.3167 16.7634 23.6322 16.7824C24.9477 16.8015 26.2309 16.3744 27.2725 15.5708V15.6503C27.2725 15.9507 27.3918 16.2388 27.6043 16.4512C27.8167 16.6636 28.1048 16.783 28.4051 16.783C28.7055 16.783 28.9936 16.6636 29.206 16.4512C29.4184 16.2388 29.5378 15.9507 29.5378 15.6503V10.983ZM23.7378 14.5177C23.0386 14.5177 22.3552 14.3104 21.7739 13.922C21.1927 13.5336 20.7396 12.9815 20.4721 12.3356C20.2045 11.6898 20.1345 10.979 20.2709 10.2934C20.4073 9.60768 20.744 8.97785 21.2383 8.4835C21.7326 7.98916 22.3625 7.65251 23.0482 7.51612C23.7338 7.37973 24.4446 7.44973 25.0904 7.71726C25.7363 7.9848 26.2884 8.43786 26.6768 9.01915C27.0652 9.60044 27.2725 10.2838 27.2725 10.983C27.2713 11.9201 26.8985 12.8184 26.2359 13.4811C25.5732 14.1437 24.6749 14.5165 23.7378 14.5177Z" fill="#E53E6A"/>
</g>
<defs>
<clipPath id="clip0_99_3410">
<rect width="78" height="20.5283" fill="white" transform="translate(0.25 0.736328)"/>
</clipPath>
</defs>
</svg>
